<svg width="120" height="121" viewBox="0 0 120 121" fill="none" xmlns="http://www.w3.org/2000/svg">
<g clip-path="url(#clip0_1_1795)">
<g clip-path="url(#clip1_1_1795)">
<path d="M90.6546 20.7085C79.6158 17.6922 65.4301 60.9246 78.6794 64.5442C91.9287 68.1638 101.698 23.7293 90.6546 20.7085Z" fill="#EABC49"/>
<path d="M93.4378 30.2842C92.5599 28.5869 91.0113 27.2453 89.0214 26.7051C87.0315 26.1649 85.0146 26.5295 83.3984 27.5425L93.4378 30.2842Z" fill="#DB3030"/>
<path d="M85.9378 57.7282C85.06 56.0309 83.5113 54.6893 81.5214 54.1491C79.5315 53.6044 77.5146 53.9735 75.8984 54.9865L85.9378 57.7282Z" fill="#EB8F48"/>
<path d="M92.476 37.3794C91.4405 35.376 89.6082 33.7868 87.2582 33.1475C84.9082 32.5037 82.5266 32.9404 80.6133 34.138L92.476 37.3794Z" fill="#DB3030"/>
<path d="M88.6049 51.5381C87.5694 49.5347 85.7371 47.95 83.3871 47.3062C81.0371 46.6624 78.6555 47.0991 76.7422 48.2967L88.6049 51.5381Z" fill="#DB3030"/>
<path d="M90.9935 44.695C89.8725 42.5295 87.8916 40.8143 85.3525 40.121C82.8134 39.4277 80.2383 39.8959 78.1719 41.1924L90.9935 44.695Z" fill="#DB3030"/>
<path d="M74.8353 25.1429H65.7548C64.6248 25.1429 63.7109 24.229 63.7109 23.099C63.7109 21.969 64.6248 21.0551 65.7548 21.0551H74.8353C75.9653 21.0551 76.8792 21.969 76.8792 23.099C76.8792 24.2245 75.9653 25.1429 74.8353 25.1429Z" fill="#00684A"/>
<path d="M78.778 38.6713C78.778 37.3657 77.72 36.3078 76.4144 36.3078H76.1848C78.1027 36.3078 79.3542 34.2909 78.5078 32.5711L74.8342 25.1384H70.2917H65.7538L62.0802 32.5711C61.2293 34.2909 62.4808 36.3078 64.4032 36.3078H64.1736C62.868 36.3078 61.81 37.3657 61.81 38.6713C61.81 39.9769 62.868 41.0348 64.1736 41.0348C62.868 41.0348 61.81 42.0928 61.81 43.3984C61.81 44.704 62.868 45.7619 64.1736 45.7619C62.868 45.7619 61.81 46.8199 61.81 48.1255C61.81 49.431 62.868 50.489 64.1736 50.489C62.868 50.489 61.81 51.547 61.81 52.8525C61.81 54.1581 62.868 55.2161 64.1736 55.2161H76.4144C77.72 55.2161 78.778 54.1581 78.778 52.8525C78.778 51.547 77.72 50.489 76.4144 50.489C77.72 50.489 78.778 49.431 78.778 48.1255C78.778 46.8199 77.72 45.7619 76.4144 45.7619C77.72 45.7619 78.778 44.704 78.778 43.3984C78.778 42.0928 77.72 41.0348 76.4144 41.0348C77.72 41.0348 78.778 39.9769 78.778 38.6713Z" fill="#FAE7DB"/>
<path d="M78.778 38.6713C78.778 37.3658 77.72 36.3078 76.4144 36.3078H76.1848C78.1027 36.3078 79.3542 34.2909 78.5078 32.5712L77.2878 30.0996C77.0582 30.1401 76.8331 30.1851 76.6125 30.2481C75.1989 30.6443 73.9293 31.4232 72.6013 32.0444C71.2732 32.6657 69.7965 33.1429 68.3514 32.8728C67.0503 32.6297 65.9428 31.8148 64.7228 31.2971C64.1601 31.0585 63.5253 30.9054 62.9085 30.8919L62.0802 32.5712C61.2293 34.2909 62.4808 36.3078 64.4032 36.3078H64.1736C62.868 36.3078 61.81 37.3658 61.81 38.6713C61.81 39.9769 62.868 41.0349 64.1736 41.0349C62.868 41.0349 61.81 42.0928 61.81 43.3984C61.81 44.704 62.868 45.7619 64.1736 45.7619C62.868 45.7619 61.81 46.8199 61.81 48.1255C61.81 49.431 62.868 50.489 64.1736 50.489C62.868 50.489 61.81 51.547 61.81 52.8525C61.81 54.1581 62.868 55.2161 64.1736 55.2161H76.4144C77.72 55.2161 78.778 54.1581 78.778 52.8525C78.778 51.547 77.72 50.489 76.4144 50.489C77.72 50.489 78.778 49.431 78.778 48.1255C78.778 46.8199 77.72 45.7619 76.4144 45.7619C77.72 45.7619 78.778 44.704 78.778 43.3984C78.778 42.0928 77.72 41.0349 76.4144 41.0349C77.72 41.0349 78.778 39.9769 78.778 38.6713Z" fill="#016BF8"/>
<path d="M42.7553 34.4395H23.8516V65.6967H42.7553V34.4395Z" fill="#2B5B4F"/>
<path d="M47.2241 27.1733H28.3203V24.076C28.3203 22.5408 29.5674 21.2938 31.1025 21.2938H44.4419C45.977 21.2938 47.2241 22.5408 47.2241 24.076V27.1733Z" fill="#2B5B4F"/>
<path d="M42.7553 34.4394H23.8516L28.322 27.1732H47.2258L42.7553 34.4394Z" fill="#FAE7DB"/>
<path d="M51.6948 34.4394V65.6965H42.7539V34.4394L47.2244 27.1732L51.6948 34.4394Z" fill="#EABC49"/>
<path d="M38.5456 41.2465H28.0605C27.6778 41.2465 27.3672 40.9359 27.3672 40.5532C27.3672 40.1706 27.6778 39.8599 28.0605 39.8599H38.5456C38.9282 39.8599 39.2389 40.1706 39.2389 40.5532C39.2344 40.9359 38.9282 41.2465 38.5456 41.2465Z" fill="#254C40"/>
<path d="M38.5456 46.2076H28.0605C27.6778 46.2076 27.3672 45.897 27.3672 45.5143C27.3672 45.1316 27.6778 44.821 28.0605 44.821H38.5456C38.9282 44.821 39.2389 45.1316 39.2389 45.5143C39.2344 45.897 38.9282 46.2076 38.5456 46.2076Z" fill="#254C40"/>
<path d="M38.5456 51.1643H28.0605C27.6778 51.1643 27.3672 50.8536 27.3672 50.471C27.3672 50.0883 27.6778 49.7777 28.0605 49.7777H38.5456C38.9282 49.7777 39.2389 50.0883 39.2389 50.471C39.2344 50.8536 38.9282 51.1643 38.5456 51.1643Z" fill="#EABC49"/>
<path d="M54.7181 57.7288L53.219 56.2792L51.1886 56.7429L49.6894 55.2933L47.659 55.757L46.1599 54.3073L44.125 54.7755C44.125 54.7755 47.452 48.3602 49.0276 42.7148C50.6033 37.0693 51.076 29.8571 51.076 29.8571L52.5752 31.3068L54.6101 30.8431L56.1092 32.2927L58.1396 31.829L59.6388 33.2786L61.6692 32.8149L63.1683 34.2646L65.1987 33.8009L66.6979 35.2505L68.7283 34.7868L70.2274 36.2364L72.2623 35.7727C72.2623 35.7727 68.9353 42.188 67.3597 47.8335C65.784 53.479 65.3113 60.6911 65.3113 60.6911L63.8121 59.2415L61.7772 59.7052L60.2781 58.2556L58.2477 58.7193L56.7485 57.2696L54.7181 57.7288Z" fill="#FAE7DB"/>
<path d="M68.7342 34.777L66.7039 35.2407L65.2047 33.7911L63.1743 34.2548L61.6752 32.8052L59.6448 33.2689L58.1456 31.8192L56.1152 32.2829L54.6161 30.8333L52.5812 31.297L51.082 29.8474C51.082 29.8474 51.0055 30.9954 50.8164 32.7331L71.0032 38.3651C71.7416 36.7804 72.2683 35.7585 72.2683 35.7585L70.2334 36.2222L68.7342 34.777Z" fill="#EABC49"/>
<path d="M47.659 55.7607L49.6894 55.297L51.1886 56.7467L53.219 56.283L54.7181 57.7326L56.7485 57.2689L58.2477 58.7185L60.2781 58.2548L61.7772 59.7045L63.8121 59.2408L65.3113 60.6904C65.3113 60.6904 65.3878 59.5424 65.5769 57.8046L45.3946 52.1637C44.6562 53.7484 44.125 54.7748 44.125 54.7748L46.1599 54.3111L47.659 55.7607Z" fill="#EABC49"/>
<path d="M62.5621 46.4868C61.4817 50.372 58.6454 52.9741 56.2368 52.2988C53.8238 51.628 52.7478 47.9319 53.8328 44.0467C54.9178 40.1615 57.7495 37.5593 60.1581 38.2346C62.5711 38.9099 63.6471 42.6016 62.5621 46.4868Z" fill="#00684A"/>
<path d="M87.8559 99.6776H32.1485C29.767 99.6776 27.7231 97.9938 27.2594 95.6573L19.3359 58.48H100.668L92.7405 95.6573C92.2813 97.9938 90.2374 99.6776 87.8559 99.6776Z" fill="#00684A"/>
<path d="M101.335 58.4799H18.6698C16.6709 58.4799 15.0547 56.8592 15.0547 54.8649V52.1772C15.0547 50.1783 16.6754 48.5621 18.6698 48.5621H101.335C103.334 48.5621 104.95 50.1828 104.95 52.1772V54.8649C104.95 56.8637 103.334 58.4799 101.335 58.4799Z" fill="#0AAD0A"/>
<path d="M60.0012 91.7224C59.0018 91.7224 58.1914 90.9121 58.1914 89.9126V68.2402C58.1914 67.2407 59.0018 66.4304 60.0012 66.4304C61.0006 66.4304 61.811 67.2407 61.811 68.2402V89.9126C61.811 90.9166 61.0006 91.7224 60.0012 91.7224Z" fill="#0AAD0A"/>
<path d="M70.1301 91.7224C69.1307 91.7224 68.3203 90.9121 68.3203 89.9126V68.2402C68.3203 67.2407 69.1307 66.4304 70.1301 66.4304C71.1295 66.4304 71.9399 67.2407 71.9399 68.2402V89.9126C71.9399 90.9166 71.1295 91.7224 70.1301 91.7224Z" fill="#0AAD0A"/>
<path d="M80.2668 91.7224C79.2674 91.7224 78.457 90.9121 78.457 89.9126V68.2402C78.457 67.2407 79.2674 66.4304 80.2668 66.4304C81.2663 66.4304 82.0766 67.2407 82.0766 68.2402V89.9126C82.0721 90.9166 81.2618 91.7224 80.2668 91.7224Z" fill="#0AAD0A"/>
<path d="M49.8723 91.7224C50.8717 91.7224 51.6821 90.9121 51.6821 89.9126V68.2402C51.6821 67.2407 50.8717 66.4304 49.8723 66.4304C48.8729 66.4304 48.0625 67.2407 48.0625 68.2402V89.9126C48.0625 90.9166 48.8729 91.7224 49.8723 91.7224Z" fill="#0AAD0A"/>
<path d="M39.7434 91.7224C40.7428 91.7224 41.5532 90.9121 41.5532 89.9126V68.2402C41.5532 67.2407 40.7428 66.4304 39.7434 66.4304C38.7439 66.4304 37.9336 67.2407 37.9336 68.2402V89.9126C37.9336 90.9166 38.7439 91.7224 39.7434 91.7224Z" fill="#0AAD0A"/>
<path d="M103.615 75.2272L81.5871 55.6392C80.4976 54.6712 80.4031 53.0055 81.371 51.916C82.3389 50.8266 84.0047 50.732 85.0941 51.6999L107.122 71.288C108.212 72.2559 108.306 73.9217 107.338 75.0111C106.37 76.1006 104.705 76.1952 103.615 75.2272Z" fill="#EABC49"/>
<path d="M84.3824 53.6448C84.3824 54.239 83.9007 54.7208 83.3064 54.7208C82.7122 54.7208 82.2305 54.239 82.2305 53.6448C82.2305 53.0505 82.7122 52.5688 83.3064 52.5688C83.9007 52.5688 84.3824 53.0505 84.3824 53.6448Z" fill="#00684A"/>
<path d="M16.391 75.2272L38.4191 55.6392C39.5086 54.6712 39.6032 53.0055 38.6352 51.916C37.6673 50.8266 36.0016 50.732 34.9121 51.6999L12.884 71.288C11.7945 72.2559 11.6999 73.9217 12.6679 75.0111C13.6358 76.1006 15.3015 76.1952 16.391 75.2272Z" fill="#EABC49"/>
<path d="M35.6172 53.6448C35.6172 54.239 36.0989 54.7208 36.6932 54.7208C37.2874 54.7208 37.7691 54.239 37.7691 53.6448C37.7691 53.0505 37.2874 52.5688 36.6932 52.5688C36.0989 52.5688 35.6172 53.0505 35.6172 53.6448Z" fill="#00684A"/>
</g>
</g>
<defs>
<clipPath id="clip0_1_1795">
<rect width="120" height="120" fill="white" transform="translate(0 0.559937)"/>
</clipPath>
<clipPath id="clip1_1_1795">
<rect width="120" height="120" fill="white" transform="translate(0 0.559937)"/>
</clipPath>
</defs>
</svg>
