<svg width="121" height="121" viewBox="0 0 121 121" fill="none" xmlns="http://www.w3.org/2000/svg">
<path d="M76.0762 99.3956H55.2048C54.7409 99.3956 54.363 99.0177 54.363 98.5539C54.363 97.3887 55.3078 96.441 56.4759 96.441H74.805C75.9703 96.441 76.9179 97.3858 76.9179 98.5539C76.9179 99.0177 76.54 99.3956 76.0762 99.3956Z" fill="#00684A"/>
<path d="M72.2496 96.4411H59.031L60.5169 87.7919H70.7665L72.2496 96.4411Z" fill="#24473D"/>
<path d="M100.82 87.774H31.1335C29.7679 87.774 28.6599 86.666 28.6599 85.3004V43.0336C28.6599 41.6679 29.7679 40.5599 31.1335 40.5599H100.817C102.182 40.5599 103.29 41.6679 103.29 43.0336V85.3004C103.29 86.666 102.185 87.774 100.82 87.774Z" fill="#00684A"/>
<path d="M99.7113 80.0332H31.5714C31.0933 80.0332 30.7068 79.6466 30.7068 79.1685V43.8131C30.7068 43.3349 31.0933 42.9484 31.5714 42.9484H99.7113C100.189 42.9484 100.576 43.3349 100.576 43.8131V79.1657C100.576 79.6438 100.189 80.0332 99.7113 80.0332Z" fill="#0AAD0A"/>
<path d="M67.7946 84.407C68.0759 83.216 67.3383 82.0224 66.1473 81.7412C64.9562 81.4599 63.7627 82.1975 63.4814 83.3885C63.2002 84.5796 63.9377 85.7731 65.1288 86.0544C66.3198 86.3356 67.5134 85.5981 67.7946 84.407Z" fill="#24473D"/>
<path d="M60.7089 68.9619H70.5061C71.1073 68.9619 71.594 68.4752 71.594 67.8739V53.8938C71.594 53.2926 71.1073 52.8058 70.5061 52.8058H60.7089C60.1077 52.8058 59.6208 53.2926 59.6208 53.8938V67.8739C59.6208 68.4752 60.1077 68.9619 60.7089 68.9619Z" fill="#45C945"/>
<path d="M68.4119 67.3442H62.8032C62.3566 67.3442 61.9958 66.9835 61.9958 66.5368C61.9958 66.0902 62.3566 65.7295 62.8032 65.7295H68.4119C68.8585 65.7295 69.2193 66.0902 69.2193 66.5368C69.2193 66.9835 68.8556 67.3442 68.4119 67.3442Z" fill="#088F08"/>
<path d="M67.6643 58.0881H63.7934C63.5987 58.0881 63.4412 57.9306 63.4412 57.7359V57.7216C63.4412 57.5269 63.5987 57.3695 63.7934 57.3695H67.6643C67.859 57.3695 68.0164 57.5269 68.0164 57.7216V57.7359C68.0192 57.9306 67.859 58.0881 67.6643 58.0881Z" fill="#EABC49"/>
<path d="M67.7829 58.4202H67.425V58.0881H64.0352V58.4202H63.6773C63.3968 58.4202 63.1677 58.6492 63.1677 58.9298V63.7941C63.1677 64.0747 63.3968 64.3037 63.6773 64.3037H67.7858C68.0663 64.3037 68.2954 64.0747 68.2954 63.7941V58.9298C68.2925 58.6492 68.0635 58.4202 67.7829 58.4202Z" fill="#D7513E"/>
<path d="M67.7829 64.3066C68.0635 64.3066 68.2925 64.0776 68.2925 63.797V59.2877C68.1866 59.2849 68.0807 59.2935 67.9776 59.3135C67.6283 59.3822 67.3048 59.554 66.9727 59.6857C66.6406 59.8174 66.2741 59.9148 65.9277 59.8289C65.5297 59.7287 65.2033 59.3994 64.7939 59.3679C64.5591 59.3479 64.3272 59.4338 64.1068 59.5197C63.8863 59.6056 63.6602 59.7001 63.4254 59.703C63.3395 59.703 63.2479 59.6886 63.1677 59.6571V63.8C63.1677 64.0805 63.3968 64.3095 63.6773 64.3095H67.7829V64.3066Z" fill="#2B5B4F"/>
<path d="M65.7262 62.4943C66.7508 62.4943 67.5814 61.988 67.5814 61.3634C67.5814 60.7388 66.7508 60.2325 65.7262 60.2325C64.7016 60.2325 63.8708 60.7388 63.8708 61.3634C63.8708 61.988 64.7016 62.4943 65.7262 62.4943Z" fill="#EABC49"/>
<path d="M70.9929 72.1456H60.2164C59.8872 72.1456 59.6208 71.8793 59.6208 71.55C59.6208 71.2208 59.8872 70.9545 60.2164 70.9545H70.9929C71.3221 70.9545 71.5883 71.2208 71.5883 71.55C71.5911 71.8793 71.3221 72.1456 70.9929 72.1456Z" fill="#097609"/>
<path d="M70.9929 74.6047H60.2164C59.8872 74.6047 59.6208 74.3384 59.6208 74.0092C59.6208 73.6799 59.8872 73.4137 60.2164 73.4137H70.9929C71.3221 73.4137 71.5883 73.6799 71.5883 74.0092C71.5911 74.3384 71.3221 74.6047 70.9929 74.6047Z" fill="#097609"/>
<path d="M88.5633 72.1456H77.7869C77.4576 72.1456 77.1912 71.8793 77.1912 71.55C77.1912 71.2208 77.4576 70.9545 77.7869 70.9545H88.5633C88.8925 70.9545 89.1588 71.2208 89.1588 71.55C89.1588 71.8793 88.8925 72.1456 88.5633 72.1456Z" fill="#097609"/>
<path d="M88.5633 74.6047H77.7869C77.4576 74.6047 77.1912 74.3384 77.1912 74.0092C77.1912 73.6799 77.4576 73.4137 77.7869 73.4137H88.5633C88.8925 73.4137 89.1588 73.6799 89.1588 74.0092C89.1588 74.3384 88.8925 74.6047 88.5633 74.6047Z" fill="#097609"/>
<path d="M52.9357 68.9619H43.1385C42.5372 68.9619 42.0505 68.4752 42.0505 67.8739V53.8938C42.0505 53.2926 42.5372 52.8058 43.1385 52.8058H52.9357C53.537 52.8058 54.0237 53.2926 54.0237 53.8938V67.8739C54.0208 68.4752 53.5341 68.9619 52.9357 68.9619Z" fill="#45C945"/>
<path d="M50.8416 67.3442H45.2329C44.7863 67.3442 44.4255 66.9835 44.4255 66.5368C44.4255 66.0902 44.7863 65.7295 45.2329 65.7295H50.8416C51.2882 65.7295 51.6489 66.0902 51.6489 66.5368C51.6489 66.9835 51.2882 67.3442 50.8416 67.3442Z" fill="#088F08"/>
<path d="M46.7672 56.1985C44.7145 57.4669 44.0789 60.161 45.3501 62.2138C46.6184 64.2665 49.3125 64.9021 51.3653 63.631L46.7672 56.1985Z" fill="#2B5B4F"/>
<path d="M47.1638 56.8398C45.466 57.8905 44.9392 60.118 45.9899 61.8157C47.0407 63.5135 49.2681 64.0403 50.9659 62.9896L47.1638 56.8398Z" fill="#D7513E"/>
<path d="M47.1657 58.237C47.0397 58.3143 46.9051 58.3286 46.8651 58.2656C46.8278 58.2027 46.8994 58.0881 47.0254 58.0108C47.1514 57.9335 47.2859 57.9192 47.326 57.9822C47.3632 58.0452 47.2916 58.1597 47.1657 58.237Z" fill="black"/>
<path d="M46.4743 59.6713C46.3483 59.7487 46.2137 59.763 46.1736 59.7C46.1364 59.637 46.208 59.5225 46.334 59.4452C46.46 59.3679 46.5946 59.3534 46.6347 59.4164C46.6719 59.4794 46.6002 59.5912 46.4743 59.6713Z" fill="black"/>
<path d="M47.7125 59.9748C47.5866 60.0521 47.452 60.0664 47.4119 60.0034C47.3747 59.9405 47.4463 59.8259 47.5723 59.7486C47.6982 59.6713 47.8328 59.657 47.8729 59.72C47.9101 59.7801 47.8385 59.8946 47.7125 59.9748Z" fill="black"/>
<path d="M46.7711 61.3863C46.6452 61.4636 46.5106 61.4779 46.4705 61.4149C46.4333 61.352 46.5049 61.2374 46.6309 61.1601C46.7568 61.0828 46.8914 61.0685 46.9315 61.1315C46.9687 61.1916 46.8971 61.3061 46.7711 61.3863Z" fill="black"/>
<path d="M48.2516 61.5609C48.1256 61.6382 47.9911 61.6525 47.951 61.5895C47.9138 61.5265 47.9853 61.412 48.1113 61.3347C48.2373 61.2574 48.3718 61.2431 48.4119 61.3061C48.4491 61.3691 48.3776 61.4807 48.2516 61.5609Z" fill="black"/>
<path d="M49.7282 62.626C49.6022 62.7033 49.4676 62.7176 49.4276 62.6546C49.3903 62.5916 49.4619 62.4771 49.5879 62.3998C49.7139 62.3225 49.8484 62.3082 49.8885 62.3711C49.9286 62.4341 49.857 62.5458 49.7282 62.626Z" fill="black"/>
<path d="M48.1657 62.772C48.0397 62.8493 47.9051 62.8636 47.8651 62.8006C47.8278 62.7376 47.8994 62.6231 48.0254 62.5458C48.1514 62.4685 48.2859 62.4542 48.326 62.5171C48.3632 62.5773 48.2916 62.6918 48.1657 62.772Z" fill="black"/>
<path d="M53.4225 72.1456H42.646C42.3168 72.1456 42.0505 71.8793 42.0505 71.55C42.0505 71.2208 42.3168 70.9545 42.646 70.9545H53.4225C53.7517 70.9545 54.018 71.2208 54.018 71.55C54.018 71.8793 53.7517 72.1456 53.4225 72.1456Z" fill="#097609"/>
<path d="M53.4225 74.6047H42.646C42.3168 74.6047 42.0505 74.3384 42.0505 74.0092C42.0505 73.6799 42.3168 73.4137 42.646 73.4137H53.4225C53.7517 73.4137 54.018 73.6799 54.018 74.0092C54.018 74.3384 53.7517 74.6047 53.4225 74.6047Z" fill="#097609"/>
<path d="M78.2753 68.9619H88.0726C88.6738 68.9619 89.1605 68.4752 89.1605 67.8739V53.8938C89.1605 53.2926 88.6738 52.8058 88.0726 52.8058H78.2753C77.6741 52.8058 77.1873 53.2926 77.1873 53.8938V67.8739C77.1873 68.4752 77.6741 68.9619 78.2753 68.9619Z" fill="#45C945"/>
<path d="M85.9784 67.3442H80.3697C79.9231 67.3442 79.5623 66.9835 79.5623 66.5368C79.5623 66.0902 79.9231 65.7295 80.3697 65.7295H85.9784C86.425 65.7295 86.7857 66.0902 86.7857 66.5368C86.7857 66.9835 86.425 67.3442 85.9784 67.3442Z" fill="#088F08"/>
<path d="M85.1073 56.4876C83.1719 55.56 79.1064 63.0554 81.4254 64.1691C83.7473 65.2799 87.0427 57.4152 85.1073 56.4876Z" fill="#D7513E"/>
<path d="M85.3006 58.3457C85.1947 58.0022 84.9542 57.7044 84.6078 57.5384C84.2585 57.3723 83.8748 57.3723 83.5427 57.504L85.3006 58.3457Z" fill="#EB8F48"/>
<path d="M82.9959 63.1555C82.89 62.812 82.6495 62.5142 82.3031 62.3482C81.9566 62.1821 81.5701 62.1821 81.238 62.3138L82.9959 63.1555Z" fill="#EB8F48"/>
<path d="M84.883 59.6227C84.7599 59.219 84.4736 58.864 84.0642 58.6665C83.6519 58.4689 83.1995 58.4689 82.8044 58.6264L84.883 59.6227Z" fill="#EB8F48"/>
<path d="M83.6916 62.102C83.5685 61.6983 83.2822 61.3433 82.8728 61.1457C82.4605 60.9482 82.0081 60.9482 81.613 61.1057L83.6916 62.102Z" fill="#EB8F48"/>
<path d="M84.3644 60.9224C84.2298 60.4843 83.9235 60.1036 83.4769 59.8888C83.0331 59.677 82.5407 59.6741 82.1169 59.8459L84.3644 60.9224Z" fill="#EB8F48"/>
<path d="M93.2293 58.8782C93.152 58.8782 93.0747 58.9069 93.0175 58.967C92.9001 59.0844 92.9001 59.2762 93.0175 59.3936L94.5091 60.8852L93.0175 62.3769C92.9001 62.4942 92.9001 62.6861 93.0175 62.8034C93.1349 62.9208 93.3267 62.9208 93.4441 62.8034L94.9357 61.3118C95.1705 61.077 95.1705 60.6963 94.9357 60.4615L93.4441 58.9699C93.3811 58.9097 93.3066 58.8782 93.2293 58.8782Z" fill="#FFC107"/>
<path d="M38.0541 58.8782C38.1314 58.8782 38.2087 58.9069 38.2659 58.967C38.3833 59.0844 38.3833 59.2762 38.2659 59.3936L36.7743 60.8852L38.2659 62.3769C38.3833 62.4942 38.3833 62.6861 38.2659 62.8034C38.1485 62.9208 37.9596 62.9208 37.8393 62.8034L36.3477 61.3118C36.1129 61.077 36.1129 60.6963 36.3477 60.4615L37.8393 58.9699C37.8995 58.9097 37.9768 58.8782 38.0541 58.8782Z" fill="#FFC107"/>
<path d="M60.8591 50.5553C60.8591 53.195 62.9978 55.3337 65.6375 55.3337C68.2772 55.3337 70.4159 53.195 70.4159 50.5553H60.8591Z" fill="#EAC9B7"/>
<path d="M70.4216 50.5553C70.4216 53.195 72.5603 55.3337 75.2 55.3337C77.8397 55.3337 79.9784 53.195 79.9784 50.5553H70.4216Z" fill="#00684A"/>
<path d="M79.9802 50.5553C79.9802 53.195 82.1189 55.3337 84.7586 55.3337C87.3983 55.3337 89.537 53.195 89.537 50.5553H79.9802Z" fill="#EAC9B7"/>
<path d="M89.5388 50.5553C89.5388 53.195 91.6775 55.3337 94.3172 55.3337C96.9569 55.3337 99.0956 53.195 99.0956 50.5553H89.5388Z" fill="#00684A"/>
<path d="M99.0974 50.5553C99.0974 53.195 101.236 55.3337 103.876 55.3337C106.516 55.3337 108.654 53.195 108.654 50.5553H99.0974Z" fill="#EAC9B7"/>
<path d="M60.8612 50.5553C60.8612 53.195 58.7225 55.3337 56.0828 55.3337C53.4431 55.3337 51.3044 53.195 51.3044 50.5553H60.8612Z" fill="#00684A"/>
<path d="M51.3027 50.5553C51.3027 53.195 49.1639 55.3337 46.5243 55.3337C43.8846 55.3337 41.7458 53.195 41.7458 50.5553H51.3027Z" fill="#EAC9B7"/>
<path d="M41.7402 50.5553C41.7402 53.195 39.6014 55.3337 36.9618 55.3337C34.3221 55.3337 32.1833 53.195 32.1833 50.5553H41.7402Z" fill="#00684A"/>
<path d="M32.1816 50.5553C32.1816 53.195 30.0429 55.3337 27.4032 55.3337C24.7635 55.3337 22.6248 53.195 22.6248 50.5553H32.1816Z" fill="#EAC9B7"/>
<path d="M70.4187 50.5553H60.8591L61.8755 32.7043H69.4052L70.4187 50.5553Z" fill="#FAE7DB"/>
<path d="M79.9791 50.5553H70.4195L69.406 32.7043H76.9357L79.9791 50.5553Z" fill="#0AAD0A"/>
<path d="M89.5404 50.5553H79.9807L76.9373 32.7043H84.4671L89.5404 50.5553Z" fill="#FAE7DB"/>
<path d="M99.0975 50.5553H89.5379L84.4646 32.7043H91.9972L99.0975 50.5553Z" fill="#0AAD0A"/>
<path d="M108.66 50.5553H99.1001L91.9998 32.7043H99.5296L108.66 50.5553Z" fill="#FAE7DB"/>
<path d="M51.3005 50.5553H60.8602L61.8765 32.7043H54.3468L51.3005 50.5553Z" fill="#0AAD0A"/>
<path d="M41.7419 50.5553H51.3016L54.3478 32.7043H46.8152L41.7419 50.5553Z" fill="#FAE7DB"/>
<path d="M32.1833 50.5553H41.743L46.8162 32.7043H39.2865L32.1833 50.5553Z" fill="#0AAD0A"/>
<path d="M22.6248 50.5553H32.1816L39.2848 32.7043H31.755L22.6248 50.5553Z" fill="#FAE7DB"/>
<path d="M91.9919 32.7047H99.5217V30.5602H91.9919V32.7047Z" fill="#EAC9B7"/>
<path d="M84.4646 32.7047H91.9943V30.5602H84.4646V32.7047Z" fill="#00684A"/>
<path d="M76.9333 32.7047H84.4632V30.5602H76.9333V32.7047Z" fill="#EAC9B7"/>
<path d="M69.4021 32.7047H76.9318V30.5602H69.4021V32.7047Z" fill="#00684A"/>
<path d="M61.8748 32.7047H69.4046V30.5602H61.8748V32.7047Z" fill="#EAC9B7"/>
<path d="M54.3435 32.7047H61.8732V30.5602H54.3435V32.7047Z" fill="#00684A"/>
<path d="M46.8123 32.7047H54.3421V30.5602H46.8123V32.7047Z" fill="#EAC9B7"/>
<path d="M39.2849 32.7047H46.8146V30.5602H39.2849V32.7047Z" fill="#00684A"/>
<path d="M31.7537 32.7047H39.2835V30.5602H31.7537V32.7047Z" fill="#EAC9B7"/>
<path d="M25.2663 75.7585L13.7054 61.4462C13.3476 61.0024 13.4163 60.3554 13.86 59.9975L21.3612 53.9365C21.8049 53.5786 22.452 53.6473 22.8098 54.0911L34.3707 68.4033C34.7286 68.8471 34.6599 69.4942 34.2161 69.852L26.715 75.9132C26.2712 76.2682 25.6242 76.1995 25.2663 75.7585Z" fill="#D7513E"/>
<path d="M33.4547 70.4659L20.6 54.5529L19.0388 55.8141L31.8935 71.7271L33.4547 70.4659Z" fill="#EABC49"/>
<path d="M16.7487 62.4826L15.6321 61.0997C15.4861 60.9165 15.5147 60.6502 15.6951 60.5042L16.1847 60.1091C16.3679 59.9631 16.6342 59.9918 16.7802 60.1721L17.8968 61.555C18.0428 61.7382 18.0141 62.0045 17.8338 62.1505L17.3442 62.5456C17.1638 62.6916 16.8976 62.6658 16.7487 62.4826Z" fill="#EABC49"/>
<path d="M26.4779 67.9452L18.742 58.3656C18.6561 58.2596 18.6733 58.1022 18.7792 58.0163C18.8852 57.9304 19.0426 57.9476 19.1285 58.0535L26.8673 67.6332C26.9532 67.7391 26.936 67.8966 26.83 67.9825C26.7212 68.0684 26.5638 68.054 26.4779 67.9452Z" fill="#FAE7DB"/>
<path d="M22.3565 64.607L17.8787 59.0642C17.7928 58.9582 17.81 58.8008 17.9159 58.7149C18.0219 58.629 18.1793 58.6462 18.2652 58.7521L22.743 64.2949C22.8289 64.4008 22.8117 64.5583 22.7058 64.6442C22.5998 64.7301 22.4424 64.7129 22.3565 64.607Z" fill="#FAE7DB"/>
<path d="M31.8933 77.7455L13.5871 75.9218C13.0202 75.8645 12.608 75.3606 12.6652 74.7938L13.6215 65.1969C13.6787 64.63 14.1826 64.2178 14.7495 64.275L33.0557 66.0988C33.6225 66.156 34.0348 66.6599 33.9775 67.2268L33.0213 76.8237C32.964 77.3905 32.4601 77.8028 31.8933 77.7455Z" fill="#EABC49"/>
<path d="M33.8789 68.2003L13.5229 66.173L13.324 68.1702L33.6801 70.1974L33.8789 68.2003Z" fill="#D7513E"/>
<path d="M16.4644 74.4844L14.6951 74.3098C14.4632 74.2869 14.2914 74.0779 14.3143 73.846L14.3773 73.219C14.4002 72.9871 14.6092 72.8153 14.8411 72.8382L16.6104 73.0157C16.8423 73.0386 17.0141 73.2476 16.9912 73.4795L16.9282 74.1065C16.9053 74.3384 16.6963 74.5073 16.4644 74.4844Z" fill="#D7513E"/>
<path d="M27.1852 71.3952L14.9315 70.1756C14.794 70.1613 14.6938 70.041 14.7081 69.9036C14.7225 69.7662 14.8427 69.666 14.9801 69.6803L27.2339 70.8999C27.3713 70.9142 27.4715 71.0345 27.4572 71.1719C27.4429 71.3093 27.3197 71.4096 27.1852 71.3952Z" fill="#FAE7DB"/>
<path d="M21.7224 70.3502L22.7846 70.9572L27.1822 71.3952C27.3196 71.4095 27.4427 71.3093 27.4542 71.1719C27.4685 71.0345 27.3683 70.9113 27.2309 70.8999" fill="#EAC9B7"/>
<path d="M21.9109 71.9879L14.8221 71.2807C14.6847 71.2664 14.5844 71.1461 14.5988 71.0087C14.6131 70.8713 14.7333 70.7711 14.8707 70.7854L21.9596 71.4926C22.097 71.5069 22.1972 71.6271 22.1829 71.7645C22.1686 71.902 22.0455 72.0022 21.9109 71.9879Z" fill="#FAE7DB"/>
</svg>
