<svg width="45" height="29" viewBox="0 0 45 29" fill="none" xmlns="http://www.w3.org/2000/svg">
<g clip-path="url(#clip0_1_2209)">
<g clip-path="url(#clip1_1_2209)">
<path fill-rule="evenodd" clip-rule="evenodd" d="M17.6627 19.3157C16.1062 20.5101 13.8476 21.145 11.9049 21.145C9.1805 21.145 6.72758 20.099 4.87151 18.3573C4.7264 18.2211 4.85513 18.0338 5.03067 18.1384C7.0342 19.3498 9.51052 20.0795 12.0687 20.0795C13.7937 20.0795 15.6919 19.7074 17.4356 18.9387C17.7001 18.8219 17.9201 19.1187 17.6627 19.3157Z" fill="#F8991D"/>
<path fill-rule="evenodd" clip-rule="evenodd" d="M18.3132 18.546C18.1142 18.2809 16.9978 18.4195 16.4946 18.4828C16.3424 18.5022 16.319 18.3636 16.4548 18.2639C17.3465 17.6144 18.807 17.8017 18.9756 18.0182C19.1464 18.2371 18.9311 19.7599 18.0955 20.4847C17.9668 20.5966 17.8451 20.5358 17.9012 20.3899C18.0908 19.9034 18.5121 18.8112 18.3132 18.546Z" fill="#F8991D"/>
<path fill-rule="evenodd" clip-rule="evenodd" d="M16.528 13.668V13.0355C16.528 12.9382 16.5982 12.875 16.6825 12.875H19.4092C19.4958 12.875 19.5661 12.9407 19.5661 13.0355V13.578C19.5661 13.668 19.4912 13.7872 19.3601 13.9769L17.9487 16.0713C18.473 16.0592 19.0277 16.1394 19.5029 16.4192C19.6105 16.4824 19.6386 16.5748 19.648 16.6648V17.3387C19.648 17.4311 19.5497 17.5381 19.4467 17.4822C18.6088 17.0249 17.4946 16.9762 16.5654 17.487C16.4695 17.5406 16.3712 17.4335 16.3712 17.3411V16.6989C16.3712 16.5967 16.3735 16.4216 16.4718 16.2635L18.1079 13.8237H16.6825C16.5982 13.8261 16.528 13.7629 16.528 13.668Z" fill="#333E47"/>
<path fill-rule="evenodd" clip-rule="evenodd" d="M6.5816 17.6166H5.75304C5.67346 17.6118 5.61027 17.5485 5.60559 17.4707V13.0459C5.60559 12.9584 5.67814 12.8878 5.76475 12.8878H6.53713C6.61905 12.8927 6.68225 12.9559 6.68693 13.0362V13.6127H6.70331C6.9046 13.0532 7.28378 12.793 7.79402 12.793C8.31363 12.793 8.63897 13.0532 8.87068 13.6127C9.07197 13.0532 9.52838 12.793 10.0176 12.793C10.3663 12.793 10.7454 12.9413 10.9772 13.277C11.2393 13.6492 11.1855 14.1892 11.1855 14.6636V17.4561C11.1855 17.5437 11.1129 17.6142 11.0263 17.6142H10.1977C10.1135 17.6093 10.048 17.5412 10.048 17.4561V15.1111C10.048 14.9263 10.0644 14.4592 10.0246 14.2841C9.96373 13.9849 9.77648 13.9022 9.53775 13.9022C9.33646 13.9022 9.12815 14.0408 9.04154 14.2646C8.95728 14.4884 8.96431 14.8606 8.96431 15.1111V17.4561C8.96431 17.5437 8.89175 17.6142 8.80515 17.6142H7.97658C7.89232 17.6093 7.82679 17.5412 7.82679 17.4561V15.1111C7.82679 14.6173 7.90403 13.8925 7.31654 13.8925C6.7197 13.8925 6.7431 14.6003 6.7431 15.1111V17.4561C6.7431 17.5461 6.67055 17.6166 6.5816 17.6166Z" fill="#333E47"/>
<path fill-rule="evenodd" clip-rule="evenodd" d="M21.9217 13.6969C21.3109 13.6969 21.2711 14.5629 21.2711 15.1029C21.2711 15.6429 21.2641 16.7959 21.9147 16.7959C22.5584 16.7959 22.5888 15.8643 22.5888 15.2975C22.5888 14.9253 22.5724 14.4777 22.4648 14.125C22.3688 13.8161 22.1839 13.6969 21.9217 13.6969ZM21.9124 12.7944C23.1435 12.7944 23.8082 13.8939 23.8082 15.2902C23.8082 16.6402 23.0733 17.7105 21.9124 17.7105C20.7047 17.7105 20.047 16.611 20.047 15.244C20.047 13.8647 20.714 12.7944 21.9124 12.7944Z" fill="#333E47"/>
<path fill-rule="evenodd" clip-rule="evenodd" d="M25.4058 17.6157H24.5796C24.4976 17.6108 24.4298 17.5427 24.4298 17.4576V13.0304C24.4368 12.9501 24.5047 12.8869 24.5889 12.8869H25.359C25.4315 12.8917 25.49 12.9428 25.5064 13.0109V13.6872H25.5228C25.7545 13.0815 26.0799 12.7944 26.6533 12.7944C27.0255 12.7944 27.3882 12.9331 27.62 13.315C27.8376 13.6677 27.8376 14.2637 27.8376 14.6918V17.4746C27.8283 17.5524 27.7604 17.6132 27.6785 17.6132H26.8476C26.7703 17.6084 26.7095 17.55 26.7001 17.4746V15.0737C26.7001 14.5896 26.7539 13.8818 26.1805 13.8818C25.9792 13.8818 25.7943 14.0204 25.7007 14.2345C25.5837 14.5045 25.5696 14.7745 25.5696 15.0737V17.4551C25.5649 17.5451 25.4947 17.6157 25.4058 17.6157Z" fill="#333E47"/>
<path fill-rule="evenodd" clip-rule="evenodd" d="M15.1952 17.6029C15.1414 17.654 15.0618 17.6564 14.9986 17.6223C14.7224 17.3839 14.6733 17.2745 14.5235 17.0483C14.0694 17.5299 13.7464 17.6759 13.1566 17.6759C12.4591 17.6759 11.9161 17.2283 11.9161 16.3331C11.9161 15.6325 12.2812 15.1582 12.8008 14.9247C13.2502 14.7203 13.8798 14.6814 14.3596 14.6255V14.5136C14.3596 14.3092 14.376 14.066 14.259 13.8884C14.1584 13.7303 13.9641 13.6646 13.7932 13.6646C13.4773 13.6646 13.1964 13.8325 13.1262 14.1827C13.1121 14.2606 13.0583 14.3384 12.9834 14.3409L12.1782 14.2509C12.1104 14.2338 12.0355 14.1779 12.0542 14.0709C12.2368 13.0711 13.0957 12.7597 13.8751 12.7524H13.936C14.3362 12.7573 14.8465 12.8716 15.1554 13.1806C15.558 13.5722 15.5206 14.0952 15.5206 14.6644V16.0071C15.5206 16.4109 15.6821 16.5885 15.8342 16.805C15.888 16.8828 15.8997 16.9777 15.8319 17.0337C15.6633 17.182 15.3614 17.4521 15.1952 17.6029ZM14.3573 15.5012C14.3573 15.8369 14.3643 16.1166 14.2028 16.4158C14.0718 16.6591 13.8611 16.8074 13.6294 16.8074C13.3111 16.8074 13.1262 16.5545 13.1262 16.1823C13.1262 15.4477 13.7605 15.3139 14.3596 15.3139V15.5012H14.3573Z" fill="#333E47"/>
<path fill-rule="evenodd" clip-rule="evenodd" d="M4.31832 17.6063C4.26449 17.6574 4.18491 17.6598 4.12171 17.6257C3.84552 17.3874 3.79637 17.2779 3.64658 17.0517C3.19016 17.5333 2.86951 17.6793 2.27968 17.6793C1.58219 17.6793 1.03918 17.2317 1.03918 16.3365C1.03918 15.6359 1.40431 15.1616 1.92392 14.9281C2.37331 14.7237 3.00292 14.6848 3.48274 14.6289V14.517C3.48274 14.3126 3.49912 14.0694 3.38209 13.8918C3.28145 13.7337 3.08718 13.668 2.91632 13.668C2.60034 13.668 2.31947 13.8359 2.24926 14.1862C2.23521 14.264 2.18138 14.3394 2.10648 14.3443L1.30132 14.2543C1.23345 14.2372 1.15855 14.1813 1.17727 14.0718C1.35984 13.0721 2.21883 12.7607 2.99824 12.7534H3.05909C3.45933 12.7583 3.96957 12.8726 4.27853 13.1815C4.68111 13.5732 4.64366 14.0962 4.64366 14.6654V16.0081C4.64366 16.4119 4.80516 16.5895 4.9573 16.806C5.01113 16.8838 5.02283 16.9787 4.95495 17.0346C4.78877 17.1855 4.48684 17.4555 4.31832 17.6063ZM3.48274 15.5046C3.48274 15.8403 3.48976 16.12 3.32826 16.4192C3.19719 16.6625 2.98654 16.8108 2.75482 16.8108C2.4365 16.8108 2.2516 16.5579 2.2516 16.1857C2.2516 15.4511 2.88589 15.3173 3.48508 15.3173V15.5046H3.48274Z" fill="#333E47"/>
<path fill-rule="evenodd" clip-rule="evenodd" d="M39.1776 19.203C39.1776 19.0911 39.1776 18.9913 39.1776 18.877C39.1776 18.7846 39.2221 18.7213 39.3134 18.7262C39.4866 18.753 39.7323 18.7773 39.9055 18.7408C40.1326 18.6921 40.2964 18.5243 40.3924 18.2956C40.5281 17.9721 40.6171 17.7118 40.6756 17.5416L38.9506 13.0998C38.9225 13.0244 38.9131 12.8833 39.0583 12.8833H39.6621C39.7768 12.8833 39.8236 12.9587 39.8494 13.0341L41.0992 16.6415L42.2929 13.0341C42.3163 12.9611 42.3655 12.8833 42.4802 12.8833H43.0489C43.1917 12.8833 43.1847 13.0219 43.1566 13.0998L41.4456 17.6802C41.2233 18.2908 40.9284 19.2613 40.2637 19.4292C39.9313 19.5192 39.51 19.4876 39.2642 19.3805C39.201 19.3489 39.1776 19.2613 39.1776 19.203Z" fill="#333E47"/>
<path fill-rule="evenodd" clip-rule="evenodd" d="M38.3703 17.3474C38.3703 17.4301 38.3048 17.4982 38.2252 17.4982H37.7992C37.7079 17.4982 37.6447 17.4301 37.633 17.3474L37.5909 17.0458C37.3943 17.2185 37.1556 17.3693 36.8958 17.4739C36.3949 17.6758 35.8191 17.7099 35.3299 17.3985C34.9765 17.1723 34.7892 16.732 34.7892 16.2771C34.7892 15.9244 34.8946 15.5766 35.1239 15.3236C35.4329 14.9782 35.8799 14.8079 36.4206 14.8079C36.746 14.8079 37.2141 14.8468 37.5535 14.9636V14.3554C37.5535 13.74 37.303 13.4724 36.6453 13.4724C36.1421 13.4724 35.7582 13.5503 35.2222 13.723C35.1356 13.7254 35.0865 13.6573 35.0865 13.5746V13.234C35.0865 13.1513 35.1544 13.0711 35.2293 13.0467C35.6108 12.874 36.1515 12.7646 36.7272 12.7451C37.4762 12.7451 38.368 12.9202 38.368 14.1195V17.3474H38.3703ZM37.5535 16.462V15.5474C37.2679 15.4671 36.7951 15.433 36.6125 15.433C36.3247 15.433 36.0063 15.5036 35.8425 15.6885C35.7184 15.8247 35.6623 16.0193 35.6623 16.2066C35.6623 16.4498 35.7442 16.6931 35.9314 16.8147C36.1515 16.9704 36.4908 16.9509 36.8115 16.8561C37.1205 16.7661 37.4083 16.6055 37.5535 16.462Z" fill="#333E47"/>
<path fill-rule="evenodd" clip-rule="evenodd" d="M32.0978 13.4861C33.041 13.4861 33.2985 14.2572 33.2985 15.1402C33.3032 15.7361 33.1978 16.2664 32.9006 16.5705C32.6782 16.7991 32.4301 16.86 32.058 16.86C31.7256 16.86 31.2879 16.68 30.9626 16.4294V13.9044C31.302 13.6344 31.735 13.4861 32.0978 13.4861ZM30.8175 19.3606H30.2487C30.1691 19.3606 30.1036 19.2925 30.1036 19.2098C30.1036 17.1543 30.1036 15.0964 30.1036 13.0409C30.1036 12.9582 30.1691 12.8901 30.2487 12.8901H30.6841C30.7753 12.8901 30.8385 12.9582 30.8502 13.0409L30.897 13.3644C31.3066 12.9874 31.8309 12.7466 32.3318 12.7466C33.7338 12.7466 34.1973 13.9482 34.1973 15.1985C34.1973 16.5364 33.4904 17.6092 32.299 17.6092C31.7958 17.6092 31.3254 17.417 30.9649 17.0813V19.2122C30.9626 19.2949 30.897 19.3606 30.8175 19.3606Z" fill="#333E47"/>
</g>
</g>
<defs>
<clipPath id="clip0_1_2209">
<rect width="44" height="28" fill="white" transform="translate(0.170044 0.845215)"/>
</clipPath>
<clipPath id="clip1_1_2209">
<rect width="44" height="28" fill="white" transform="translate(0.170044 0.845215)"/>
</clipPath>
</defs>
</svg>
