<svg width="35" height="29" viewBox="0 0 35 29" fill="none" xmlns="http://www.w3.org/2000/svg">
<g clip-path="url(#clip0_1_2224)">
<g clip-path="url(#clip1_1_2224)">
<g clip-path="url(#clip2_1_2224)">
<mask id="mask0_1_2224" style="mask-type:luminance" maskUnits="userSpaceOnUse" x="0" y="0" width="34" height="29">
<path d="M33.8752 0.845215H0.170044V28.8452H33.8752V0.845215Z" fill="white"/>
</mask>
<g mask="url(#mask0_1_2224)">
<path d="M3.05872 12.2858H4.23576L3.64724 10.7822L3.05872 12.2858Z" fill="#2FABF7"/>
<path d="M17.6641 10.9975C17.5571 10.9438 17.3966 10.9438 17.2361 10.9438H16.1661V11.803H17.2361C17.3966 11.803 17.5571 11.803 17.6641 11.7493C17.7712 11.6956 17.8247 11.5345 17.8247 11.3734C17.8782 11.1586 17.7712 11.0512 17.6641 10.9975Z" fill="#228FE0"/>
<path d="M29.1144 9.38477V10.0291L28.7934 9.38477H26.2788V10.0291L25.9578 9.38477H22.5337C21.9452 9.38477 21.4637 9.49217 21.0357 9.70696V9.38477H18.6281V9.70696C18.3606 9.49217 18.0396 9.38477 17.6116 9.38477H8.99782L8.4093 10.7272L7.82078 9.38477H5.0922V10.0291L4.77119 9.38477H2.47061L1.40058 11.9086L0.170044 14.7009H1.40058H2.89863L3.21964 13.8417H3.96866L4.28967 14.7009H7.39277V14.0565L7.66028 14.7009H9.21183L9.47934 14.0565V14.7009H16.916V13.3047H17.023C17.13 13.3047 17.13 13.3047 17.13 13.4658V14.6472H20.9822V14.325C21.3032 14.4861 21.7847 14.6472 22.4267 14.6472H24.0318L24.3528 13.788H25.1018L25.4228 14.6472H28.5259V13.8417L29.0074 14.6472H31.522V9.38477H29.1144ZM11.0308 13.8954H10.1214V10.942L8.83732 13.8954H8.03479L6.75075 10.942V13.8954H4.93169L4.55718 13.0899H2.73812L2.41711 13.9491H1.40058L3.00563 10.1365H4.34317L5.84122 13.7343V10.1365H7.28577L8.4628 12.714L9.53284 10.1365H11.0308V13.8954ZM14.669 10.942H12.5824V11.6401H14.6155V12.3919H12.5824V13.1436H14.669V13.9491H11.6729V10.1365H14.669V10.942ZM18.6816 12.4993C18.7886 12.714 18.8421 12.8751 18.8421 13.1973V13.9491H17.9326V13.4658C17.9326 13.251 17.9326 12.9288 17.7721 12.714C17.6116 12.5529 17.451 12.5529 17.13 12.5529H16.167V13.9491H15.2575V10.1365H17.2905C17.7721 10.1365 18.0931 10.1365 18.3606 10.2976C18.6281 10.4587 18.7886 10.7272 18.7886 11.1568C18.7886 11.7475 18.4141 12.0697 18.1466 12.1771C18.4141 12.2308 18.5746 12.3919 18.6816 12.4993ZM20.2866 13.8954H19.3771V10.0828H20.2866V13.8954ZM30.8265 13.8954H29.5424L27.8304 11.0494V13.8954H26.0113L25.6903 13.0899H23.8178L23.4967 13.9491H22.4802C22.0522 13.9491 21.5172 13.8417 21.1962 13.5195C20.8752 13.1973 20.7147 12.7677 20.7147 12.0697C20.7147 11.5327 20.8217 10.9957 21.1962 10.5661C21.4637 10.2439 21.9452 10.1365 22.5337 10.1365H23.3897V10.942H22.5337C22.2127 10.942 22.0522 10.9957 21.8382 11.1568C21.6777 11.3179 21.5707 11.6401 21.5707 12.016C21.5707 12.4456 21.6242 12.714 21.8382 12.9288C21.9987 13.0899 22.2127 13.1436 22.4802 13.1436H22.8547L24.0853 10.1902H25.4228L26.9209 13.788V10.1902H28.2584L29.8099 12.8214V10.1902H30.7195V13.8954H30.8265Z" fill="#0571C1"/>
<path d="M24.1388 12.2858H25.3693L24.7808 10.7822L24.1388 12.2858Z" fill="#228FE0"/>
<path d="M15.0436 20.0169V16.9561L13.6525 18.4597L15.0436 20.0169Z" fill="#228FE0"/>
<path d="M9.31848 17.332V18.0301H11.298V18.7819H9.31848V19.5873H11.512L12.5285 18.4597L11.5655 17.332H9.31848Z" fill="#2FABF7"/>
<path d="M17.0767 17.3325H15.9532V18.2991H17.1302C17.4513 18.2991 17.6653 18.138 17.6653 17.8158C17.6118 17.4936 17.3978 17.3325 17.0767 17.3325Z" fill="#228FE0"/>
<path d="M33.6074 18.2455V15.8291H32.9653H31.3603C30.8788 15.8291 30.5043 15.9365 30.2368 16.1513V15.8291H27.7757C27.4012 15.8291 26.9197 15.9365 26.7056 16.1513V15.8291H22.372V16.1513C22.051 15.8828 21.4625 15.8291 21.195 15.8291H18.3059V16.1513C18.0384 15.8828 17.3964 15.8291 17.0753 15.8291H13.8652L13.1162 16.6346L12.4207 15.8291H7.60559V21.0915H12.3137L13.0627 20.286L13.7582 21.0915H16.6473V19.8565H17.0218C17.3964 19.8565 17.8779 19.8565 18.2524 19.6954V21.1452H20.66V19.7491H20.767C20.9275 19.7491 20.9275 19.7491 20.9275 19.9102V21.1452H28.2037C28.6852 21.1452 29.1667 21.0378 29.4342 20.823V21.1452H31.7348C32.2163 21.1452 32.6978 21.0915 33.0188 20.8767C33.5539 20.5545 33.8749 19.9639 33.8749 19.2658C33.8749 18.8899 33.7679 18.514 33.6074 18.2455ZM17.0218 19.1047H15.9518V20.3934H14.2398L13.1697 19.1584L12.0462 20.3934H8.51512V16.5809H12.0997L13.1697 17.8159L14.2933 16.5809H17.1288C17.8244 16.5809 18.6269 16.7957 18.6269 17.8159C18.5734 18.8899 17.8244 19.1047 17.0218 19.1047ZM22.372 18.8899C22.479 19.051 22.5325 19.2658 22.5325 19.588V20.3397H21.623V19.8565C21.623 19.6417 21.623 19.2658 21.4625 19.1047C21.3555 18.9436 21.1415 18.9436 20.8205 18.9436H19.8574V20.3397H18.9479V16.5272H20.981C21.409 16.5272 21.7835 16.5272 22.051 16.6883C22.3185 16.8494 22.5325 17.1178 22.5325 17.5474C22.5325 18.1381 22.158 18.4603 21.8905 18.5677C22.158 18.6751 22.3185 18.7825 22.372 18.8899ZM26.0636 17.3326H23.9771V18.0307H26.0101V18.7825H23.9771V19.5343H26.0636V20.3397H23.0675V16.5272H26.0636V17.3326ZM28.3107 20.3397H26.5986V19.5343H28.3107C28.4712 19.5343 28.5782 19.5343 28.6852 19.4269C28.7387 19.3732 28.7922 19.2658 28.7922 19.1584C28.7922 19.051 28.7387 18.9436 28.6852 18.8899C28.6317 18.8362 28.5247 18.7825 28.3642 18.7825C27.5082 18.7288 26.4916 18.7825 26.4916 17.6011C26.4916 17.0641 26.8126 16.4735 27.7757 16.4735H29.5412V17.3863H27.8827C27.7222 17.3863 27.6152 17.3863 27.5082 17.44C27.4012 17.4937 27.4012 17.6011 27.4012 17.7085C27.4012 17.8696 27.5082 17.9233 27.6152 17.977C27.7222 18.0307 27.8292 18.0307 27.9362 18.0307H28.4177C28.8992 18.0307 29.2202 18.1381 29.4342 18.3529C29.5947 18.514 29.7017 18.7825 29.7017 19.1584C29.7017 19.9639 29.2202 20.3397 28.3107 20.3397ZM32.9118 19.9639C32.6978 20.1786 32.3233 20.3397 31.7883 20.3397H30.0763V19.5343H31.7883C31.9488 19.5343 32.0558 19.5343 32.1628 19.4269C32.2163 19.3732 32.2698 19.2658 32.2698 19.1584C32.2698 19.051 32.2163 18.9436 32.1628 18.8899C32.1093 18.8362 32.0023 18.7825 31.8418 18.7825C30.9858 18.7288 29.9693 18.7825 29.9693 17.6011C29.9693 17.0641 30.2903 16.4735 31.2533 16.4735H33.0188V17.3863H31.4138C31.2533 17.3863 31.1463 17.3863 31.0393 17.44C30.9323 17.4937 30.9323 17.6011 30.9323 17.7085C30.9323 17.8696 30.9858 17.9233 31.1463 17.977C31.2533 18.0307 31.3603 18.0307 31.4673 18.0307H31.9488C32.4303 18.0307 32.7513 18.1381 32.9653 18.3529C33.0188 18.3529 33.0188 18.4066 33.0188 18.4066C33.1794 18.6214 33.2329 18.8899 33.2329 19.1584C33.2329 19.4806 33.1259 19.7491 32.9118 19.9639Z" fill="#0571C1"/>
<path d="M21.4102 17.4399C21.3032 17.3862 21.1427 17.3862 20.9822 17.3862H19.9122V18.2454H20.9822C21.1427 18.2454 21.3032 18.2454 21.4102 18.1917C21.5172 18.138 21.5707 17.9769 21.5707 17.8158C21.6242 17.601 21.5172 17.4936 21.4102 17.4399Z" fill="#228FE0"/>
<path d="M17.6642 10.9966C17.5571 10.9429 17.3966 10.9429 17.2361 10.9429H16.1661V11.802H17.2361C17.3966 11.802 17.5571 11.802 17.6642 11.7483C17.7712 11.6946 17.8247 11.5335 17.8247 11.3724C17.8782 11.1576 17.7712 11.0503 17.6642 10.9966Z" fill="#228FE0"/>
<path d="M24.1388 12.2858H25.3693L24.7808 10.7822L24.1388 12.2858Z" fill="#228FE0"/>
<path d="M15.0436 20.0169V16.9561L13.6525 18.4597L15.0436 20.0169Z" fill="#228FE0"/>
<path d="M17.0767 17.3325H15.9532V18.2991H17.1302C17.4513 18.2991 17.6653 18.138 17.6653 17.8158C17.6118 17.4936 17.3978 17.3325 17.0767 17.3325Z" fill="#228FE0"/>
<path d="M21.4102 17.4399C21.3032 17.3862 21.1427 17.3862 20.9822 17.3862H19.9122V18.2454H20.9822C21.1427 18.2454 21.3032 18.2454 21.4102 18.1917C21.5172 18.138 21.5707 17.9769 21.5707 17.8158C21.6242 17.601 21.5172 17.4936 21.4102 17.4399Z" fill="#228FE0"/>
<path d="M16.7008 20.2323L15.9518 19.4269V20.3397H14.1863L13.1162 19.1047L11.9392 20.3397H8.40811V16.5809H11.9927L13.1162 17.8159L13.6512 17.1715L12.3137 15.8291H7.60559V21.0915H12.3137L13.1162 20.286L13.8117 21.0915H16.7008V20.2323Z" fill="#2FABF7"/>
<path d="M11.1378 14.6472L10.4423 13.8954H10.1214V13.5732L9.31883 12.7677L8.78381 13.8954H8.03479L6.75075 10.942V13.8954H4.93169L4.55718 13.0899H2.73812L2.36361 13.8954H1.40058L3.00563 10.1365H4.34317L5.84122 13.7343V10.1365H6.64374L5.89472 9.38477H5.0922V10.0291L4.82469 9.38477H2.47061L1.40058 11.9086L0.170044 14.6472H1.40058H2.95213L3.27314 13.8417H4.02216L4.39667 14.6472H7.39277V14.0028L7.66028 14.6472H9.21183L9.47933 14.0028V14.6472H11.1378Z" fill="#2FABF7"/>
<path d="M8.67451 12.1761L7.81848 11.3169L8.4605 12.713L8.67451 12.1761Z" fill="#2FABF7"/>
<path d="M33.0207 20.8225C33.5022 20.5003 33.8232 19.9633 33.8767 19.3726L33.1277 18.6209C33.1812 18.782 33.2347 18.9431 33.2347 19.1579C33.2347 19.48 33.1277 19.7485 32.9137 19.9633C32.6997 20.1781 32.3252 20.3392 31.7902 20.3392H30.0781V19.5337H31.7902C31.9507 19.5337 32.0577 19.5337 32.1647 19.4263C32.2182 19.3726 32.2717 19.2652 32.2717 19.1579C32.2717 19.0505 32.2182 18.9431 32.1647 18.8894C32.1112 18.8357 32.0042 18.782 31.8437 18.782C30.9876 18.7283 29.9711 18.782 29.9711 17.6006C29.9711 17.0636 30.2921 16.5803 31.0946 16.4729L30.5061 15.8823C30.3991 15.936 30.3456 15.9897 30.2921 15.9897V15.6675H27.831C27.4565 15.6675 26.975 15.7749 26.761 15.9897V15.6675H22.3739V15.9897C22.0529 15.7212 21.4643 15.6675 21.1968 15.6675H18.3078V15.9897C18.0402 15.7212 17.3982 15.6675 17.0772 15.6675H13.8671L13.1181 16.4729L12.4226 15.6675H11.8341L13.4391 17.2784L14.2416 16.4192H17.0772C17.7727 16.4192 18.5753 16.634 18.5753 17.6543C18.5753 18.7283 17.8262 18.9431 17.0237 18.9431H15.9537V19.7485L16.7562 20.554V19.7485H17.0237C17.3982 19.7485 17.8797 19.7485 18.2543 19.5874V21.0373H20.6618V19.6411H20.7688C20.9293 19.6411 20.9293 19.6411 20.9293 19.8022V21.0373H28.2056C28.6871 21.0373 29.1686 20.9299 29.4361 20.7151V21.0373H31.7367C32.1647 21.091 32.6462 21.0373 33.0207 20.8225ZM22.3739 18.8894C22.4809 19.0505 22.5344 19.2652 22.5344 19.5874V20.3392H21.6249V19.8559C21.6249 19.6411 21.6249 19.2652 21.4643 19.1042C21.3573 18.9431 21.1433 18.9431 20.8223 18.9431H19.8593V20.3392H18.9498V16.5266H20.9828C21.4108 16.5266 21.7854 16.5266 22.0529 16.6877C22.3204 16.8488 22.5344 17.1173 22.5344 17.5469C22.5344 18.1376 22.1599 18.4598 21.8924 18.5672C22.1599 18.6746 22.3204 18.782 22.3739 18.8894ZM26.0655 17.3321H23.9789V18.0302H26.012V18.782H23.9789V19.5337H26.0655V20.3392H23.0694V16.5266H26.0655V17.3321ZM28.3126 20.3392H26.6005V19.5337H28.3126C28.4731 19.5337 28.5801 19.5337 28.6871 19.4263C28.7406 19.3726 28.7941 19.2652 28.7941 19.1579C28.7941 19.0505 28.7406 18.9431 28.6871 18.8894C28.6336 18.8357 28.5266 18.782 28.3661 18.782C27.51 18.7283 26.4935 18.782 26.4935 17.6006C26.4935 17.0636 26.8145 16.4729 27.7775 16.4729H29.5431V17.3858H27.8845C27.724 17.3858 27.617 17.3858 27.51 17.4395C27.403 17.4932 27.403 17.6006 27.403 17.708C27.403 17.8691 27.51 17.9228 27.617 17.9765C27.724 18.0302 27.831 18.0302 27.938 18.0302H28.4196C28.9011 18.0302 29.2221 18.1376 29.4361 18.3524C29.5966 18.5135 29.7036 18.782 29.7036 19.1579C29.7036 19.9633 29.2221 20.3392 28.3126 20.3392Z" fill="#228FE0"/>
<path d="M30.881 17.7084C30.881 17.8695 30.9345 17.9232 31.095 17.9769C31.202 18.0306 31.3091 18.0306 31.4161 18.0306H31.8976C32.2186 18.0306 32.4326 18.0843 32.6466 18.1917L31.8441 17.3862H31.3626C31.202 17.3862 31.095 17.3862 30.988 17.4399C30.9345 17.4936 30.881 17.601 30.881 17.7084Z" fill="#228FE0"/>
<path d="M29.0099 14.4883L29.1166 14.6494H29.1699L29.0099 14.4883Z" fill="#228FE0"/>
<path d="M26.0665 11.5347L26.976 13.7363V12.4475L26.0665 11.5347Z" fill="#228FE0"/>
<path d="M16.9162 13.3062H17.0232C17.1302 13.3062 17.1302 13.3062 17.1302 13.4673V14.6487H20.9824V14.3265C21.3034 14.4876 21.7849 14.6487 22.4269 14.6487H24.032L24.353 13.7895H25.102L25.423 14.6487H28.5261V14.1117L27.7771 13.3599V13.9506H25.958L25.6905 13.0914H23.818L23.4969 13.9506H22.4804C22.0524 13.9506 21.5174 13.8432 21.1964 13.521C20.8754 13.1988 20.7149 12.7692 20.7149 12.0711C20.7149 11.5342 20.8219 10.9972 21.1964 10.5676C21.4639 10.2454 21.9454 10.138 22.5339 10.138H23.3899V10.9435H22.5339C22.2129 10.9435 22.0524 10.9972 21.8384 11.1583C21.6779 11.3194 21.5709 11.6416 21.5709 12.0174C21.5709 12.447 21.6244 12.7155 21.8384 12.9303C21.9989 13.0914 22.2129 13.1451 22.4804 13.1451H22.8549L24.0855 10.1917H24.6205L23.8715 9.43994H22.4804C21.8919 9.43994 21.4104 9.54733 20.9824 9.76213V9.43994H18.6283V9.76213C18.3608 9.54733 18.0398 9.43994 17.6118 9.43994H8.99803L8.40951 10.7824L7.82099 9.43994H5.46692L6.21594 10.1917H7.28597L8.1955 12.1785L8.51651 12.5007L9.47954 10.138H10.9775V13.9506H10.0681V10.9972L9.15853 13.1451L10.71 14.7024H16.8627L16.9162 13.3062ZM19.3773 10.138H20.2868V13.9506H19.3773V10.138ZM14.6692 10.9435H12.5826V11.6416H14.6157V12.3933H12.5826V13.1451H14.6692V13.9506H11.6731V10.138H14.6692V10.9435ZM16.1672 13.8969H15.2577V10.0843H17.2907C17.7723 10.0843 18.0933 10.0843 18.3608 10.2454C18.6283 10.4065 18.7888 10.675 18.7888 11.1046C18.7888 11.6953 18.4143 12.0174 18.1468 12.1248C18.3608 12.1785 18.5213 12.3396 18.5748 12.447C18.6818 12.6618 18.7353 12.8229 18.7353 13.1451V13.8969H17.8258V13.4136C17.8258 13.1988 17.8258 12.8766 17.6653 12.6618C17.6118 12.5544 17.4513 12.5544 17.1302 12.5544H16.1672V13.8969Z" fill="#228FE0"/>
</g>
</g>
</g>
</g>
<defs>
<clipPath id="clip0_1_2224">
<rect width="34" height="28" fill="white" transform="translate(0.170044 0.845215)"/>
</clipPath>
<clipPath id="clip1_1_2224">
<rect width="34" height="28" fill="white" transform="translate(0.170044 0.845215)"/>
</clipPath>
<clipPath id="clip2_1_2224">
<rect width="34" height="28" fill="white" transform="translate(0.170044 0.845215)"/>
</clipPath>
</defs>
</svg>
