<svg width="25" height="25" viewBox="0 0 25 25" fill="none" xmlns="http://www.w3.org/2000/svg">
<path d="M4.25 19.7498C4.25 20.2802 4.46071 20.7889 4.83579 21.164C5.21086 21.539 5.71957 21.7498 6.25 21.7498C6.78043 21.7498 7.28914 21.539 7.66421 21.164C8.03929 20.7889 8.25 20.2802 8.25 19.7498C8.25 19.2193 8.03929 18.7106 7.66421 18.3355C7.28914 17.9605 6.78043 17.7498 6.25 17.7498C5.71957 17.7498 5.21086 17.9605 4.83579 18.3355C4.46071 18.7106 4.25 19.2193 4.25 19.7498Z" stroke="white" stroke-width="1.25" stroke-linecap="round" stroke-linejoin="round"/>
<path d="M12.75 17.7498H6.25V3.74976H4.25" stroke="white" stroke-width="1.25" stroke-linecap="round" stroke-linejoin="round"/>
<path d="M6.25 5.74976L20.25 6.74976L19.25 13.7498H6.25" stroke="white" stroke-width="1.25" stroke-linecap="round" stroke-linejoin="round"/>
<path d="M16.25 22.7498L21.25 17.7498" stroke="white" stroke-width="1.25" stroke-linecap="round" stroke-linejoin="round"/>
<path d="M21.25 22.2498V17.7498H16.75" stroke="white" stroke-width="1.25" stroke-linecap="round" stroke-linejoin="round"/>
</svg>
