<svg width="32" height="32" viewBox="0 0 32 32" fill="none" xmlns="http://www.w3.org/2000/svg">
<path d="M5.97974 13.4217L3.47974 16.755V28.4217C3.47974 28.8637 3.65533 29.2876 3.96789 29.6002C4.28045 29.9127 4.70438 30.0883 5.1464 30.0883H16.8131C17.2551 30.0883 17.679 29.9127 17.9916 29.6002C18.3041 29.2876 18.4797 28.8637 18.4797 28.4217V16.755L15.9797 13.4217H5.97974Z" stroke="#5C6C75" stroke-opacity="0.75" stroke-width="1.66667" stroke-linecap="round" stroke-linejoin="round"/>
<path d="M3.47974 16.755H18.4797" stroke="#5C6C75" stroke-opacity="0.75" stroke-width="1.66667" stroke-linecap="round" stroke-linejoin="round"/>
<path d="M14.3132 20.0883C14.3132 20.9724 13.962 21.8202 13.3368 22.4454C12.7117 23.0705 11.8639 23.4217 10.9798 23.4217C10.0958 23.4217 9.24792 23.0705 8.62279 22.4454C7.99767 21.8202 7.64648 20.9724 7.64648 20.0883" stroke="#5C6C75" stroke-opacity="0.75" stroke-width="1.66667" stroke-linecap="round" stroke-linejoin="round"/>
<rect x="10.8896" y="0.665009" width="20.17" height="18.35" rx="9.175" fill="#198754"/>
<path d="M21.004 13.4444C20.477 13.4444 20.0072 13.3475 19.5945 13.1536C19.1844 12.9597 18.8587 12.6925 18.6176 12.3519C18.3765 12.0114 18.251 11.6211 18.241 11.1811H19.8071C19.8245 11.4769 19.9488 11.7168 20.1799 11.9007C20.4111 12.0847 20.6858 12.1767 21.004 12.1767C21.2575 12.1767 21.4812 12.1207 21.6751 12.0089C21.8715 11.8945 22.0244 11.7367 22.1338 11.5353C22.2456 11.3315 22.3016 11.0978 22.3016 10.8343C22.3016 10.5659 22.2444 10.3297 22.13 10.1259C22.0182 9.92204 21.8628 9.76295 21.664 9.64861C21.4651 9.53426 21.2376 9.47584 20.9816 9.47336C20.7579 9.47336 20.5404 9.51934 20.3291 9.61132C20.1203 9.70329 19.9575 9.82883 19.8406 9.98792L18.4051 9.73064L18.7668 5.70365H23.4351V7.02361H20.0979L19.9003 8.93642H19.945C20.0793 8.7475 20.2818 8.5909 20.5528 8.46661C20.8238 8.34232 21.127 8.28017 21.4626 8.28017C21.9225 8.28017 22.3326 8.38831 22.6931 8.60457C23.0535 8.82084 23.3381 9.11789 23.5469 9.49573C23.7557 9.87108 23.8589 10.3036 23.8564 10.7933C23.8589 11.3079 23.7396 11.7653 23.4985 12.1655C23.2598 12.5632 22.9255 12.8764 22.4955 13.1051C22.0679 13.3313 21.5707 13.4444 21.004 13.4444Z" fill="white"/>
</svg>
