<svg width="28" height="29" viewBox="0 0 28 29" fill="none" xmlns="http://www.w3.org/2000/svg">
<rect x="0.5" y="1.05005" width="27" height="27" rx="7.5" stroke="#889397"/>
<path d="M22 14.5991C22 10.1531 18.418 6.54907 14 6.54907C9.58005 6.55007 5.99805 10.1531 5.99805 14.6001C5.99805 18.6171 8.92405 21.9471 12.748 22.5511V16.9261H10.718V14.6001H12.75V12.8251C12.75 10.8081 13.945 9.69407 15.772 9.69407C16.648 9.69407 17.563 9.85107 17.563 9.85107V11.8311H16.554C15.561 11.8311 15.251 12.4521 15.251 13.0891V14.5991H17.469L17.115 16.9251H15.25V22.5501C19.074 21.9461 22 18.6161 22 14.5991Z" fill="#889397"/>
</svg>
