<svg width="140" height="42" viewBox="0 0 140 42" fill="none" xmlns="http://www.w3.org/2000/svg">
<g clip-path="url(#clip0_1_2363)">
<g clip-path="url(#clip1_1_2363)">
<g clip-path="url(#clip2_1_2363)">
<path d="M133.62 41.06H5.73092C2.91489 41.06 0.620361 38.7921 0.620361 36.0088V5.6817C0.620361 2.89845 2.91489 0.630615 5.73092 0.630615H133.62C136.437 0.630615 138.73 2.89845 138.73 5.6817V36.0088C138.73 38.7921 136.416 41.06 133.62 41.06Z" fill="black"/>
<path d="M133.62 1.4166C135.998 1.4166 137.917 3.31334 137.917 5.66364V35.9908C137.917 38.3411 135.998 40.2379 133.62 40.2379H5.73092C3.35294 40.2379 1.43389 38.3411 1.43389 35.9908V5.66364C1.43389 3.31334 3.35294 1.4166 5.73092 1.4166H133.62ZM133.62 0.612549H5.73092C2.9149 0.612549 0.620361 2.88039 0.620361 5.66364V35.9908C0.620361 38.7741 2.9149 41.0419 5.73092 41.0419H133.62C136.436 41.0419 138.73 38.7741 138.73 35.9908V5.66364C138.73 2.88039 136.416 0.612549 133.62 0.612549Z" fill="black"/>
<path d="M49.1222 10.9803C49.1222 11.8256 48.8719 12.506 48.3713 13.0008C47.7872 13.5986 47.0362 13.9079 46.1185 13.9079C45.2424 13.9079 44.4706 13.5986 43.8656 13.0008C43.2398 12.3823 42.927 11.6401 42.927 10.7329C42.927 9.82588 43.2398 9.08362 43.8656 8.48574C44.4914 7.88787 45.2424 7.57861 46.1185 7.57861C46.5565 7.57861 46.9737 7.66108 47.37 7.82601C47.7663 7.99094 48.1001 8.21776 48.3296 8.50639L47.7872 9.04244C47.37 8.56822 46.8277 8.32083 46.0976 8.32083C45.4509 8.32083 44.8877 8.54756 44.4288 9.00118C43.949 9.45471 43.7197 10.032 43.7197 10.7536C43.7197 11.4752 43.949 12.0524 44.4288 12.506C44.9086 12.9595 45.4718 13.1864 46.0976 13.1864C46.7859 13.1864 47.3492 12.9595 47.808 12.506C48.1001 12.2174 48.2878 11.805 48.3296 11.269H46.0976V10.5474H49.0596C49.1222 10.6711 49.1222 10.8154 49.1222 10.9803Z" fill="white" stroke="white" stroke-width="0.161241" stroke-miterlimit="10"/>
<path d="M53.8393 8.44445H51.0441V10.3618H53.5681V11.0834H51.0441V13.0008H53.8393V13.743H50.2515V7.68164H53.8393C53.8393 7.70225 53.8393 8.44445 53.8393 8.44445Z" fill="white" stroke="white" stroke-width="0.161241" stroke-miterlimit="10"/>
<path d="M57.1704 13.7637H56.3776V8.44461H54.6672V7.70239H58.8808V8.44461H57.1704V13.7637Z" fill="white" stroke="white" stroke-width="0.161241" stroke-miterlimit="10"/>
<path d="M61.9275 13.7637V7.70239H62.7201V13.7637H61.9275Z" fill="white" stroke="white" stroke-width="0.161241" stroke-miterlimit="10"/>
<path d="M66.2248 13.7637H65.4321V8.44461H63.7217V7.70239H67.9353V8.44461H66.2248V13.7637Z" fill="white" stroke="white" stroke-width="0.161241" stroke-miterlimit="10"/>
<path d="M75.9259 12.9799C75.3214 13.5983 74.5701 13.9075 73.673 13.9075C72.7759 13.9075 72.0253 13.5983 71.4204 12.9799C70.8155 12.3613 70.5234 11.6191 70.5234 10.7326C70.5234 9.84604 70.8155 9.08324 71.4204 8.4854C72.0253 7.86688 72.7759 7.55762 73.673 7.55762C74.5701 7.55762 75.3214 7.86688 75.9259 8.4854C76.5312 9.10387 76.844 9.84604 76.844 10.7326C76.8231 11.6191 76.5312 12.3613 75.9259 12.9799ZM72.0045 12.4644C72.4632 12.9179 73.0056 13.1447 73.673 13.1447C74.3195 13.1447 74.8829 12.9179 75.3416 12.4644C75.801 12.0108 76.03 11.4335 76.03 10.712C76.03 9.99037 75.801 9.41315 75.3416 8.95954C74.8829 8.50599 74.3405 8.27918 73.673 8.27918C73.0056 8.27918 72.4632 8.50599 72.0045 8.95954C71.5455 9.41315 71.3161 9.99037 71.3161 10.712C71.3161 11.4335 71.5455 12.0108 72.0045 12.4644Z" fill="white" stroke="white" stroke-width="0.161241" stroke-miterlimit="10"/>
<path d="M77.9253 13.7637V7.70239H78.8853L81.868 12.4236H81.9093L81.868 11.2485V7.70239H82.6609V13.7637H81.847L78.7184 8.81574H78.6765L78.7184 9.99089V13.7637H77.9253Z" fill="white" stroke="white" stroke-width="0.161241" stroke-miterlimit="10"/>
<path d="M70.3175 22.6084C67.9188 22.6084 65.9579 24.4226 65.9579 26.9173C65.9579 29.3913 67.9188 31.2262 70.3175 31.2262C72.7166 31.2262 74.6979 29.3913 74.6979 26.9173C74.6979 24.4226 72.7375 22.6084 70.3175 22.6084ZM70.3175 29.515C69.0035 29.515 67.8562 28.4429 67.8562 26.9173C67.8562 25.371 68.9826 24.3196 70.3175 24.3196C71.6526 24.3196 72.7787 25.371 72.7787 26.9173C72.7787 28.4429 71.6317 29.515 70.3175 29.515ZM60.8056 22.6084C58.4069 22.6084 56.446 24.4226 56.446 26.9173C56.446 29.3913 58.4069 31.2262 60.8056 31.2262C63.2045 31.2262 65.1653 29.3913 65.1653 26.9173C65.1653 24.4226 63.2045 22.6084 60.8056 22.6084ZM60.8056 29.515C59.4916 29.515 58.3443 28.4429 58.3443 26.9173C58.3443 25.371 59.4916 24.3196 60.8056 24.3196C62.1198 24.3196 63.267 25.371 63.267 26.9173C63.2462 28.4429 62.1198 29.515 60.8056 29.515ZM49.4581 23.9278V25.7627H53.8804C53.7552 26.7936 53.4005 27.5358 52.8791 28.0512C52.2324 28.6903 51.2312 29.3913 49.4581 29.3913C46.7464 29.3913 44.6188 27.2265 44.6188 24.5463C44.6188 21.8662 46.7464 19.7014 49.4581 19.7014C50.9183 19.7014 52.003 20.2787 52.7957 21.0003L54.0889 19.722C52.9833 18.6706 51.5233 17.8872 49.4581 17.8872C45.7243 17.8872 42.5955 20.8765 42.5955 24.567C42.5955 28.2574 45.7243 31.2468 49.4581 31.2468C51.4815 31.2468 52.9833 30.587 54.1724 29.3706C55.3822 28.1749 55.7785 26.4637 55.7785 25.103C55.7785 24.67 55.7369 24.2783 55.6742 23.9691C55.6742 23.9278 49.4581 23.9278 49.4581 23.9278ZM95.8078 25.3504C95.4527 24.3815 94.3476 22.6084 92.0743 22.6084C89.8423 22.6084 87.9646 24.3608 87.9646 26.9173C87.9646 29.3295 89.8002 31.2262 92.283 31.2262C94.2853 31.2262 95.4325 30.0304 95.9114 29.3295L94.4309 28.3604C93.9302 29.082 93.2627 29.5562 92.283 29.5562C91.3227 29.5562 90.6133 29.1232 90.1756 28.2574L95.9955 25.8864C96.0166 25.8246 95.8078 25.3504 95.8078 25.3504ZM89.8843 26.7729C89.8423 25.1236 91.1771 24.2578 92.1568 24.2578C92.9084 24.2578 93.5548 24.6288 93.7845 25.1649C93.7635 25.1855 89.8843 26.7729 89.8843 26.7729ZM85.1485 30.9581H87.0674V18.3201H85.1485V30.9581ZM82.0201 23.5568H81.957C81.5185 23.062 80.7054 22.6084 79.6624 22.6084C77.4933 22.6084 75.491 24.5052 75.491 26.9173C75.491 29.3295 77.4933 31.2055 79.6624 31.2055C80.7054 31.2055 81.5185 30.752 81.957 30.2366H82.0201V30.8551C82.0201 32.5045 81.1229 33.391 79.7043 33.391C78.5363 33.391 77.8061 32.5663 77.5142 31.8654L75.8456 32.5456C76.3253 33.6796 77.5972 35.0815 79.7043 35.0815C81.957 35.0815 83.8346 33.7827 83.8346 30.6077V22.8764H82.0201V23.5568ZM79.8293 29.515C78.5153 29.515 77.4095 28.4223 77.4095 26.9173C77.4095 25.3917 78.5153 24.2989 79.8293 24.2989C81.1229 24.2989 82.1446 25.4123 82.1446 26.9173C82.1446 28.4223 81.1229 29.515 79.8293 29.515ZM104.777 18.2995H100.209V30.9376H102.107V26.1545H104.777C106.905 26.1545 108.969 24.6288 108.969 22.2373C108.969 19.8252 106.884 18.2995 104.777 18.2995ZM104.819 24.402H102.107V20.0726H104.819C106.237 20.0726 107.051 21.2477 107.051 22.2373C107.051 23.2063 106.237 24.402 104.819 24.402ZM116.626 22.5877C115.249 22.5877 113.81 23.1856 113.225 24.5258L114.916 25.2267C115.27 24.5257 115.958 24.2989 116.667 24.2989C117.648 24.2989 118.67 24.8969 118.67 25.9277V26.0514C118.315 25.8452 117.585 25.5565 116.667 25.5565C114.853 25.5565 112.975 26.5462 112.975 28.4017C112.975 30.0923 114.477 31.185 116.145 31.185C117.439 31.185 118.148 30.6077 118.586 29.9479H118.649V30.9169H120.485V26.072C120.505 23.8454 118.816 22.5877 116.626 22.5877ZM116.396 29.515C115.771 29.515 114.895 29.2058 114.895 28.4429C114.895 27.4739 115.979 27.0822 116.918 27.0822C117.752 27.0822 118.148 27.2677 118.67 27.5151C118.503 28.6903 117.502 29.515 116.396 29.515ZM127.222 22.8558L125.032 28.3398H124.969L122.696 22.8558H120.63L124.031 30.5046L122.091 34.7723H124.093L129.35 22.8558H127.222ZM110.013 30.9581H111.932V18.3201H110.013V30.9581Z" fill="white"/>
<path d="M11.2838 8.23825C10.9917 8.54747 10.804 9.0423 10.804 9.66078V32.03C10.804 32.6484 10.9709 33.1432 11.2838 33.4525L11.3673 33.5143L24.0498 20.9793V20.6907L11.3673 8.15576L11.2838 8.23825Z" fill="url(#paint0_linear_1_2363)"/>
<path d="M28.2668 25.1644L24.0532 20.9792V20.6907L28.2877 16.5054L28.392 16.5673L33.3982 19.3917C34.8166 20.1958 34.8166 21.5153 33.3982 22.3193L28.392 25.1232C28.3711 25.1025 28.2668 25.1644 28.2668 25.1644Z" fill="url(#paint1_linear_1_2363)"/>
<path d="M28.3656 25.1029L24.0476 20.8352L11.3025 33.4321C11.7823 33.9268 12.5541 33.9887 13.4302 33.4939L28.3656 25.1029Z" fill="url(#paint2_linear_1_2363)"/>
<path d="M28.3619 16.5673L13.4057 8.17633C12.5296 7.68154 11.7578 7.74339 11.2781 8.23816L24.0231 20.835L28.3619 16.5673Z" fill="url(#paint3_linear_1_2363)"/>
</g>
</g>
</g>
<defs>
<linearGradient id="paint0_linear_1_2363" x1="22.9125" y1="32.2539" x2="1.90232" y2="10.7453" gradientUnits="userSpaceOnUse">
<stop stop-color="#00A0FF"/>
<stop offset="0.0066" stop-color="#00A1FF"/>
<stop offset="0.2601" stop-color="#00BEFF"/>
<stop offset="0.5122" stop-color="#00D2FF"/>
<stop offset="0.7604" stop-color="#00DFFF"/>
<stop offset="1" stop-color="#00E3FF"/>
</linearGradient>
<linearGradient id="paint1_linear_1_2363" x1="35.23" y1="20.8363" x2="4.21035" y2="20.8363" gradientUnits="userSpaceOnUse">
<stop stop-color="#FFE000"/>
<stop offset="0.4087" stop-color="#FFBD00"/>
<stop offset="0.7754" stop-color="#FFA500"/>
<stop offset="1" stop-color="#FF9C00"/>
</linearGradient>
<linearGradient id="paint2_linear_1_2363" x1="17.4712" y1="26.9527" x2="-11.0203" y2="-2.21472" gradientUnits="userSpaceOnUse">
<stop stop-color="#FF3A44"/>
<stop offset="1" stop-color="#C31162"/>
</linearGradient>
<linearGradient id="paint3_linear_1_2363" x1="-0.465254" y1="32.4462" x2="12.2575" y2="19.4218" gradientUnits="userSpaceOnUse">
<stop stop-color="#32A071"/>
<stop offset="0.0685" stop-color="#2DA771"/>
<stop offset="0.4762" stop-color="#15CF74"/>
<stop offset="0.8009" stop-color="#06E775"/>
<stop offset="1" stop-color="#00F076"/>
</linearGradient>
<clipPath id="clip0_1_2363">
<rect width="140" height="40.45" fill="white" transform="translate(0 0.610107)"/>
</clipPath>
<clipPath id="clip1_1_2363">
<rect width="140" height="40.45" fill="white" transform="translate(0 0.610107)"/>
</clipPath>
<clipPath id="clip2_1_2363">
<rect width="139.957" height="40.45" fill="white" transform="translate(0.0214844 0.610107)"/>
</clipPath>
</defs>
</svg>
