<svg width="140" height="42" viewBox="0 0 140 42" fill="none" xmlns="http://www.w3.org/2000/svg">
<g clip-path="url(#clip0_1_2327)">
<g clip-path="url(#clip1_1_2327)">
<g clip-path="url(#clip2_1_2327)">
<mask id="mask0_1_2327" style="mask-type:luminance" maskUnits="userSpaceOnUse" x="0" y="0" width="140" height="42">
<path d="M139.776 0.140137H0.0170898V41.5501H139.776V0.140137Z" fill="white"/>
</mask>
<g mask="url(#mask0_1_2327)">
<path d="M138.794 36.6668C138.794 38.856 137.025 40.6411 134.819 40.6411H4.89713C2.7079 40.6411 0.922852 38.8729 0.922852 36.6668V5.04093C0.922852 2.85171 2.7079 1.06665 4.89713 1.06665H134.819C137.009 1.06665 138.794 2.85171 138.794 5.04093V36.6668Z" fill="white"/>
<path d="M134.84 41.5501H4.91759C2.22316 41.5501 0.0170898 39.3609 0.0170898 36.6665V5.04063C0.0170898 2.3462 2.20632 0.140137 4.91759 0.140137H134.84C137.534 0.140137 139.74 2.32936 139.74 5.04063V36.6665C139.724 39.3609 137.534 41.5501 134.84 41.5501Z" fill="black"/>
<path d="M138.794 36.6668C138.794 38.856 137.025 40.6411 134.819 40.6411H4.89713C2.7079 40.6411 0.922852 38.8729 0.922852 36.6668V5.04093C0.922852 2.85171 2.7079 1.06665 4.89713 1.06665H134.819C137.009 1.06665 138.794 2.85171 138.794 5.04093V36.6668Z" fill="black"/>
<path d="M31.2075 20.635C31.1738 17.3007 33.9356 15.6672 34.0703 15.5998C32.5043 13.3264 30.0792 13.0065 29.2204 12.9896C27.1827 12.7706 25.2124 14.2021 24.1683 14.2021C23.1074 14.2021 21.5076 13.0065 19.7899 13.0401C17.567 13.0738 15.4957 14.3537 14.3673 16.3576C12.0265 20.4161 13.778 26.3944 16.0176 29.6782C17.146 31.2949 18.4595 33.08 20.1772 33.0126C21.8612 32.9452 22.4843 31.9348 24.5219 31.9348C26.526 31.9348 27.1321 33.0126 28.8836 32.962C30.6854 32.9283 31.8306 31.3454 32.9083 29.7287C34.205 27.8931 34.7271 26.0744 34.7439 25.9734C34.7102 25.9565 31.2412 24.6262 31.2075 20.635Z" fill="white"/>
<path d="M27.8905 10.8167C28.7998 9.68847 29.4229 8.13912 29.2377 6.58984C27.9241 6.64036 26.2907 7.49922 25.3476 8.61065C24.5056 9.58735 23.7647 11.1872 23.9667 12.686C25.4487 12.787 26.9474 11.9282 27.8905 10.8167Z" fill="white"/>
<path d="M55.5878 32.7599H53.2302L51.9503 28.7183H47.454L46.2246 32.7599H43.9343L48.3633 18.9846H51.1083L55.5878 32.7599ZM51.5461 27.0173L50.3842 23.4136C50.2663 23.0431 50.0305 22.1842 49.6938 20.8202H49.66C49.5253 21.4097 49.3064 22.2684 49.0032 23.4136L47.8581 27.0173H51.5461Z" fill="white"/>
<path d="M66.9737 27.674C66.9737 29.3579 66.5189 30.7052 65.5927 31.6819C64.7676 32.5576 63.7403 32.9954 62.5278 32.9954C61.2143 32.9954 60.2713 32.5238 59.6987 31.5808V36.8013H57.4927V26.1078C57.4927 25.0468 57.459 23.9522 57.4084 22.8408H59.345L59.4629 24.4238H59.4966C60.2376 23.2449 61.349 22.6387 62.8478 22.6387C64.0267 22.6387 65.0033 23.0934 65.778 24.0364C66.5695 24.9458 66.9737 26.1583 66.9737 27.674ZM64.7171 27.7581C64.7171 26.7981 64.4981 25.9899 64.0603 25.3668C63.5888 24.71 62.9489 24.3901 62.1405 24.3901C61.6016 24.3901 61.0964 24.5753 60.6586 24.929C60.2208 25.2994 59.9176 25.771 59.7828 26.3435C59.7156 26.613 59.6819 26.8319 59.6819 27.0171V28.6675C59.6819 29.3916 59.9008 29.9978 60.3386 30.503C60.7765 31.0082 61.3658 31.244 62.0731 31.244C62.8983 31.244 63.5551 30.924 64.0098 30.2842C64.4813 29.6442 64.7171 28.8022 64.7171 27.7581Z" fill="white"/>
<path d="M78.3938 27.674C78.3938 29.3579 77.9391 30.7052 77.0133 31.6819C76.1881 32.5576 75.1609 32.9954 73.9484 32.9954C72.6348 32.9954 71.6917 32.5238 71.1192 31.5808V36.8013H68.9131V26.1078C68.9131 25.0468 68.8795 23.9522 68.8289 22.8408H70.7655L70.8834 24.4238H70.9171C71.6581 23.2449 72.7695 22.6387 74.2684 22.6387C75.4471 22.6387 76.4239 23.0934 77.1982 24.0364C78.0071 24.9458 78.3938 26.1583 78.3938 27.674ZM76.154 27.7581C76.154 26.7981 75.9351 25.9899 75.4974 25.3668C75.0264 24.71 74.386 24.3901 73.5778 24.3901C73.0389 24.3901 72.5337 24.5753 72.0959 24.929C71.6581 25.2994 71.3718 25.771 71.2202 26.3435C71.1529 26.613 71.1192 26.8319 71.1192 27.0171V28.6675C71.1192 29.3916 71.3381 29.9978 71.7759 30.503C72.2138 30.9914 72.8032 31.244 73.5105 31.244C74.3356 31.244 74.9923 30.924 75.4471 30.2842C75.9188 29.6442 76.154 28.8022 76.154 27.7581Z" fill="white"/>
<path d="M91.1728 28.9031C91.1728 30.0819 90.7695 31.025 89.9438 31.766C89.0518 32.5743 87.7888 32.9786 86.1887 32.9786C84.7062 32.9786 83.5111 32.6922 82.6182 32.1196L83.1244 30.2841C84.0834 30.8566 85.1609 31.1428 86.3063 31.1428C87.132 31.1428 87.7888 30.9577 88.2435 30.5871C88.6981 30.2167 88.9342 29.7115 88.9342 29.0884C88.9342 28.5327 88.7487 28.0611 88.3611 27.6738C87.9735 27.2865 87.3507 26.9329 86.4579 26.6129C84.0495 25.7204 82.8378 24.39 82.8378 22.6723C82.8378 21.544 83.2585 20.6178 84.1174 19.8937C84.9762 19.1696 86.1051 18.8159 87.5022 18.8159C88.7487 18.8159 89.8096 19.0348 90.6345 19.4727L90.0788 21.2746C89.3044 20.8535 88.4116 20.6346 87.4351 20.6346C86.6599 20.6346 86.0371 20.8198 85.6156 21.2072C85.2454 21.544 85.0607 21.965 85.0607 22.4534C85.0607 22.9923 85.2793 23.447 85.7001 23.8006C86.0711 24.1205 86.727 24.4742 87.7043 24.8614C88.8828 25.333 89.7582 25.8887 90.3148 26.5287C90.9036 27.1517 91.1728 27.9433 91.1728 28.9031Z" fill="white"/>
<path d="M98.4916 24.4911H96.0493V29.3074C96.0493 30.5367 96.47 31.1429 97.3297 31.1429C97.7164 31.1429 98.0535 31.1093 98.3061 31.0419L98.374 32.7259C97.9351 32.8942 97.3628 32.9785 96.6563 32.9785C95.7801 32.9785 95.1068 32.7091 94.6181 32.187C94.1303 31.6481 93.8769 30.7556 93.8769 29.5095V24.4911H92.4292V22.8407H93.8769V21.022L96.0493 20.3652V22.8407H98.4916C98.4916 22.8239 98.4916 24.4911 98.4916 24.4911Z" fill="white"/>
<path d="M109.458 27.7244C109.458 29.2569 109.02 30.503 108.144 31.4798C107.235 32.4902 106.023 32.9954 104.507 32.9954C103.042 32.9954 101.88 32.5071 101.021 31.5472C100.162 30.5872 99.7241 29.3579 99.7241 27.8928C99.7241 26.3604 100.179 25.0973 101.072 24.1038C101.964 23.1271 103.177 22.6387 104.676 22.6387C106.14 22.6387 107.302 23.1271 108.195 24.0869C109.02 25.0132 109.458 26.2256 109.458 27.7244ZM107.168 27.7749C107.168 26.8656 106.966 26.0909 106.578 25.4342C106.124 24.6427 105.45 24.2553 104.591 24.2553C103.699 24.2553 103.025 24.6427 102.571 25.4342C102.183 26.0909 101.981 26.8824 101.981 27.8254C101.981 28.7348 102.183 29.5263 102.571 30.1662C103.042 30.9578 103.716 31.345 104.574 31.345C105.416 31.345 106.073 30.9409 106.561 30.1495C106.949 29.459 107.168 28.6844 107.168 27.7749Z" fill="white"/>
<path d="M116.636 24.7776C116.416 24.744 116.181 24.7102 115.945 24.7102C115.171 24.7102 114.565 24.9966 114.144 25.586C113.774 26.108 113.587 26.7648 113.587 27.5563V32.7768H111.382V25.9733C111.382 24.8282 111.364 23.784 111.315 22.841H113.234L113.318 24.744H113.386C113.621 24.0872 113.992 23.5652 114.497 23.161C114.985 22.8073 115.524 22.6221 116.097 22.6221C116.3 22.6221 116.484 22.639 116.652 22.6558L116.636 24.7776Z" fill="white"/>
<path d="M126.504 27.3204C126.504 27.7078 126.47 28.0446 126.419 28.3139H119.801C119.818 29.2907 120.155 30.0485 120.761 30.5706C121.317 31.0253 122.041 31.261 122.934 31.261C123.911 31.261 124.803 31.1094 125.611 30.7894L125.965 32.3219C125.021 32.7261 123.911 32.9283 122.63 32.9283C121.098 32.9283 119.886 32.4735 118.993 31.5641C118.118 30.6548 117.679 29.4423 117.679 27.9099C117.679 26.4111 118.084 25.1649 118.908 24.1714C119.767 23.1104 120.929 22.5715 122.378 22.5715C123.809 22.5715 124.887 23.1104 125.628 24.1714C126.217 25.047 126.504 26.0911 126.504 27.3204ZM124.399 26.7479C124.415 26.0911 124.264 25.5353 123.978 25.047C123.59 24.424 123.001 24.1208 122.226 24.1208C121.502 24.1208 120.913 24.424 120.475 25.0133C120.104 25.4849 119.886 26.0574 119.818 26.731L124.399 26.7479Z" fill="white"/>
<path d="M50.4857 14.0502H49.3237L48.6837 12.0631H46.4777L45.8714 14.0502H44.7432L46.9155 7.28052H48.2627L50.4857 14.0502ZM48.5153 11.2379L47.9427 9.46972C47.8754 9.28453 47.7744 8.86356 47.606 8.18987H47.5891C47.5218 8.47621 47.4207 8.89718 47.2692 9.46972L46.7135 11.2379H48.5153Z" fill="white"/>
<path d="M55.9442 9.16626L54.0919 14.05H53.0309L51.2458 9.16626H52.4078L53.2498 11.7429C53.3846 12.1807 53.5024 12.5849 53.6035 12.9723H53.6372C53.7213 12.6185 53.8393 12.2144 53.9908 11.7429L54.816 9.16626C54.7992 9.16626 55.9442 9.16626 55.9442 9.16626Z" fill="white"/>
<path d="M59.8826 14.0501L59.7984 13.4944H59.7646C59.4279 13.9491 58.9564 14.168 58.3333 14.168C57.4576 14.168 56.8345 13.5618 56.8345 12.7366C56.8345 11.5241 57.8786 10.901 59.6805 10.901V10.8168C59.6805 10.1769 59.3437 9.85692 58.6701 9.85692C58.1817 9.85692 57.7607 9.97486 57.3903 10.2275L57.1713 9.52018C57.626 9.23387 58.1817 9.09912 58.8554 9.09912C60.1352 9.09912 60.7751 9.77278 60.7751 11.12V12.9218C60.7751 13.4102 60.7919 13.7975 60.8425 14.0838L59.8826 14.0501ZM59.731 11.6252C58.5185 11.6252 57.9291 11.9114 57.9291 12.6019C57.9291 13.1071 58.249 13.3597 58.6701 13.3597C59.2258 13.3597 59.731 12.9387 59.731 12.3661C59.731 12.383 59.731 11.6252 59.731 11.6252Z" fill="white"/>
<path d="M63.2007 8.35796C62.847 8.35796 62.5608 8.07172 62.5608 7.70125C62.5608 7.33073 62.847 7.06128 63.2175 7.06128C63.5879 7.06128 63.8911 7.33073 63.8743 7.70125C63.8911 8.10536 63.6048 8.35796 63.2007 8.35796ZM63.7564 14.05H62.6786V9.16629H63.7564V14.05Z" fill="white"/>
<path d="M66.7684 14.0502H65.6907V6.92676H66.7684V14.0502Z" fill="white"/>
<path d="M71.3836 14.0501L71.2993 13.4944H71.2657C70.9289 13.9491 70.4573 14.168 69.8342 14.168C68.9586 14.168 68.3354 13.5618 68.3354 12.7366C68.3354 11.5241 69.3796 10.901 71.1815 10.901V10.8168C71.1815 10.1769 70.8446 9.85692 70.1711 9.85692C69.6827 9.85692 69.2616 9.97486 68.8912 10.2275L68.6723 9.52018C69.127 9.23387 69.6827 9.09912 70.3563 9.09912C71.6362 9.09912 72.2761 9.77278 72.2761 11.12V12.9218C72.2761 13.4102 72.2929 13.7975 72.3434 14.0838H71.3836V14.0501ZM71.2319 11.6252C70.0194 11.6252 69.4301 11.9114 69.4301 12.6019C69.4301 13.1071 69.7501 13.3597 70.1711 13.3597C70.7268 13.3597 71.2319 12.9387 71.2319 12.3661V11.6252Z" fill="white"/>
<path d="M76.6856 14.168C75.9949 14.168 75.4728 13.8818 75.1534 13.3092H75.1364L75.0691 14.067H74.1426C74.1765 13.6797 74.1765 13.225 74.1765 12.7535V6.9436H75.271V9.89064H75.288C75.6074 9.35173 76.1295 9.08231 76.8371 9.08231C78.0158 9.08231 78.8411 10.0927 78.8411 11.5578C78.8411 13.0566 77.9316 14.168 76.6856 14.168ZM76.4667 9.92435C75.8433 9.92435 75.271 10.4632 75.271 11.221V12.0799C75.271 12.7535 75.776 13.3092 76.4497 13.3092C77.2579 13.3092 77.7467 12.6524 77.7467 11.5915C77.7467 10.5979 77.2416 9.92435 76.4667 9.92435Z" fill="white"/>
<path d="M81.5369 14.0502H80.4587V6.92676H81.5369V14.0502Z" fill="white"/>
<path d="M87.4551 11.8775H84.2044C84.221 12.8037 84.8446 13.3257 85.7374 13.3257C86.2252 13.3257 86.6633 13.2415 87.0509 13.09L87.2191 13.8478C86.7644 14.0499 86.2087 14.1509 85.5859 14.1509C84.0529 14.1509 83.1609 13.191 83.1609 11.6922C83.1609 10.1934 84.0868 9.06519 85.4674 9.06519C86.7139 9.06519 87.5056 9.99145 87.5056 11.3891C87.4882 11.5744 87.4882 11.7428 87.4551 11.8775ZM86.4613 11.1028C86.4613 10.345 86.0737 9.82299 85.3838 9.82299C84.7601 9.82299 84.2723 10.3619 84.2044 11.1028H86.4613Z" fill="white"/>
<path d="M94.0352 14.1682C92.6033 14.1682 91.6765 13.1072 91.6765 11.659C91.6765 10.1434 92.6207 9.08252 94.1189 9.08252C95.5169 9.08252 96.4768 10.0929 96.4768 11.5916C96.4594 13.1072 95.4829 14.1682 94.0352 14.1682ZM94.0684 9.85713C93.2766 9.85713 92.7888 10.5981 92.7888 11.6085C92.7888 12.6189 93.294 13.343 94.0684 13.343C94.8436 13.343 95.3479 12.5515 95.3479 11.5916C95.3314 10.6149 94.8262 9.85713 94.0684 9.85713Z" fill="white"/>
<path d="M102.286 14.0499H101.209V11.2376C101.209 10.3787 100.872 9.94084 100.233 9.94084C99.5915 9.94084 99.1368 10.4966 99.1368 11.1365V14.0499H98.0593V10.564C98.0593 10.1261 98.0428 9.67143 98.0254 9.16623H98.9853L99.0366 9.92403H99.0698C99.3563 9.40202 99.9626 9.06519 100.62 9.06519C101.647 9.06519 102.32 9.8567 102.32 11.1197L102.286 14.0499Z" fill="white"/>
<path d="M109.393 9.9915H108.197V12.366C108.197 12.9722 108.4 13.2753 108.838 13.2753C109.022 13.2753 109.191 13.2585 109.325 13.2248L109.359 14.05C109.141 14.1342 108.871 14.1679 108.517 14.1679C107.659 14.1679 107.153 13.6964 107.153 12.467V10.0084H106.446V9.16637H107.153V8.27382L108.214 7.95386V9.16637H109.41V9.9915H109.393Z" fill="white"/>
<path d="M115.138 14.0502H114.043V11.2715C114.043 10.3959 113.707 9.95802 113.066 9.95802C112.511 9.95802 111.989 10.3454 111.989 11.1199V14.0502H110.894V6.92676H111.989V9.8569H112.005C112.343 9.31807 112.847 9.06547 113.471 9.06547C114.498 9.06547 115.138 9.87379 115.138 11.1537V14.0502Z" fill="white"/>
<path d="M120.697 11.8775H117.429C117.446 12.8037 118.069 13.3257 118.962 13.3257C119.45 13.3257 119.887 13.2415 120.275 13.09L120.444 13.8478C119.989 14.0499 119.434 14.1509 118.81 14.1509C117.278 14.1509 116.386 13.191 116.386 11.6922C116.386 10.1934 117.312 9.06519 118.692 9.06519C119.939 9.06519 120.73 9.99145 120.73 11.3891C120.73 11.5744 120.713 11.7428 120.697 11.8775ZM119.703 11.1028C119.703 10.345 119.315 9.82299 118.624 9.82299C118.002 9.82299 117.513 10.3619 117.446 11.1028H119.703Z" fill="white"/>
</g>
</g>
</g>
</g>
<defs>
<clipPath id="clip0_1_2327">
<rect width="140" height="41.41" fill="white" transform="translate(0 0.140137)"/>
</clipPath>
<clipPath id="clip1_1_2327">
<rect width="140" height="41.41" fill="white" transform="translate(0 0.140137)"/>
</clipPath>
<clipPath id="clip2_1_2327">
<rect width="139.966" height="41.41" fill="white" transform="translate(0.0170898 0.140137)"/>
</clipPath>
</defs>
</svg>
