<svg width="28" height="29" viewBox="0 0 28 29" fill="none" xmlns="http://www.w3.org/2000/svg">
<rect x="0.5" y="1.05005" width="27" height="27" rx="7.5" stroke="#889397"/>
<path d="M14 6.55005C11.829 6.55005 11.556 6.56005 10.703 6.59805C9.85 6.63805 9.269 6.77205 8.76 6.97005C8.22584 7.17037 7.74214 7.48545 7.343 7.89305C6.9354 8.29219 6.62033 8.77589 6.42 9.31005C6.222 9.81805 6.087 10.4 6.048 11.25C6.01 12.105 6 12.377 6 14.551C6 16.723 6.01 16.995 6.048 17.848C6.088 18.7 6.222 19.281 6.42 19.79C6.625 20.316 6.898 20.762 7.343 21.207C7.787 21.652 8.233 21.926 8.759 22.13C9.269 22.328 9.849 22.463 10.701 22.502C11.555 22.54 11.827 22.55 14 22.55C16.173 22.55 16.444 22.54 17.298 22.502C18.149 22.462 18.732 22.328 19.241 22.13C19.7748 21.9296 20.2581 21.6145 20.657 21.207C21.102 20.762 21.375 20.316 21.58 19.79C21.777 19.281 21.912 18.7 21.952 17.848C21.99 16.995 22 16.723 22 14.55C22 12.377 21.99 12.105 21.952 11.251C21.912 10.4 21.777 9.81805 21.58 9.31005C21.3797 8.77589 21.0646 8.29219 20.657 7.89305C20.2579 7.48545 19.7742 7.17037 19.24 6.97005C18.73 6.77205 18.148 6.63705 17.297 6.59805C16.443 6.56005 16.172 6.55005 13.998 6.55005H14ZM13.283 7.99205H14.001C16.137 7.99205 16.39 7.99905 17.233 8.03805C18.013 8.07305 18.437 8.20405 18.719 8.31305C19.092 8.45805 19.359 8.63205 19.639 8.91205C19.919 9.19205 20.092 9.45805 20.237 9.83205C20.347 10.113 20.477 10.537 20.512 11.317C20.551 12.16 20.559 12.413 20.559 14.548C20.559 16.683 20.551 16.937 20.512 17.78C20.477 18.56 20.346 18.983 20.237 19.265C20.1078 19.612 19.9032 19.9258 19.638 20.184C19.358 20.464 19.092 20.637 18.718 20.782C18.438 20.892 18.014 21.022 17.233 21.058C16.39 21.096 16.137 21.105 14.001 21.105C11.865 21.105 11.611 21.096 10.768 21.058C9.988 21.022 9.565 20.892 9.283 20.782C8.93583 20.6533 8.6216 20.4491 8.363 20.184C8.09727 19.9257 7.89233 19.6114 7.763 19.264C7.654 18.983 7.523 18.559 7.488 17.779C7.45 16.936 7.442 16.683 7.442 14.546C7.442 12.409 7.45 12.158 7.488 11.315C7.524 10.535 7.654 10.111 7.764 9.82905C7.909 9.45605 8.083 9.18905 8.363 8.90905C8.643 8.62905 8.909 8.45605 9.283 8.31105C9.565 8.20105 9.988 8.07105 10.768 8.03505C11.506 8.00105 11.792 7.99105 13.283 7.99005V7.99205ZM18.271 9.32005C18.1449 9.32005 18.0201 9.34488 17.9036 9.39312C17.7872 9.44137 17.6813 9.51208 17.5922 9.60123C17.503 9.69037 17.4323 9.7962 17.3841 9.91267C17.3358 10.0291 17.311 10.154 17.311 10.28C17.311 10.4061 17.3358 10.531 17.3841 10.6474C17.4323 10.7639 17.503 10.8697 17.5922 10.9589C17.6813 11.048 17.7872 11.1187 17.9036 11.167C18.0201 11.2152 18.1449 11.24 18.271 11.24C18.5256 11.24 18.7698 11.1389 18.9498 10.9589C19.1299 10.7788 19.231 10.5347 19.231 10.28C19.231 10.0254 19.1299 9.78126 18.9498 9.60123C18.7698 9.42119 18.5256 9.32005 18.271 9.32005ZM14.001 10.442C13.4561 10.4335 12.9149 10.5335 12.409 10.7362C11.9031 10.9388 11.4425 11.2401 11.0542 11.6225C10.6658 12.0048 10.3574 12.4606 10.1468 12.9633C9.93632 13.466 9.8279 14.0056 9.8279 14.5505C9.8279 15.0955 9.93632 15.6351 10.1468 16.1378C10.3574 16.6405 10.6658 17.0963 11.0542 17.4786C11.4425 17.861 11.9031 18.1623 12.409 18.3649C12.9149 18.5676 13.4561 18.6676 14.001 18.659C15.0795 18.6422 16.1082 18.202 16.865 17.4333C17.6217 16.6646 18.0459 15.6292 18.0459 14.5505C18.0459 13.4719 17.6217 12.4365 16.865 11.6678C16.1082 10.8991 15.0795 10.4589 14.001 10.442ZM14.001 11.883C14.3512 11.883 14.698 11.952 15.0216 12.0861C15.3452 12.2201 15.6392 12.4165 15.8869 12.6642C16.1345 12.9118 16.331 13.2059 16.465 13.5294C16.599 13.853 16.668 14.1998 16.668 14.55C16.668 14.9003 16.599 15.2471 16.465 15.5707C16.331 15.8942 16.1345 16.1882 15.8869 16.4359C15.6392 16.6836 15.3452 16.88 15.0216 17.014C14.698 17.1481 14.3512 17.217 14.001 17.217C13.2937 17.217 12.6153 16.9361 12.1151 16.4359C11.615 15.9357 11.334 15.2574 11.334 14.55C11.334 13.8427 11.615 13.1644 12.1151 12.6642C12.6153 12.164 13.2937 11.883 14.001 11.883Z" fill="#889397"/>
</svg>
