<svg width="28" height="29" viewBox="0 0 28 29" fill="none" xmlns="http://www.w3.org/2000/svg">
<rect x="0.5" y="1.05005" width="27" height="27" rx="7.5" stroke="#889397"/>
<path d="M11.026 21.55C17.064 21.55 20.367 16.547 20.367 12.216C20.3683 12.0753 20.3663 11.9347 20.361 11.794C21.0038 11.3283 21.5588 10.752 22 10.092C21.3991 10.3563 20.7626 10.5308 20.111 10.61C20.7976 10.1997 21.3118 9.55402 21.558 8.79301C20.9133 9.17573 20.2072 9.44402 19.471 9.58601C18.9762 9.05903 18.3214 8.70993 17.6081 8.59277C16.8948 8.47561 16.1627 8.59693 15.5253 8.93795C14.888 9.27896 14.3808 9.82064 14.0824 10.4791C13.7841 11.1375 13.7112 11.8759 13.875 12.58C12.5697 12.5149 11.2926 12.1759 10.1268 11.5852C8.96101 10.9944 7.93247 10.1651 7.108 9.15101C6.68958 9.87415 6.56195 10.7294 6.75101 11.5432C6.94006 12.357 7.43165 13.0684 8.126 13.533C7.60541 13.5162 7.09619 13.3764 6.64 13.125V13.17C6.64127 13.9274 6.90382 14.6611 7.38332 15.2474C7.86283 15.8337 8.52992 16.2365 9.272 16.388C8.99027 16.4657 8.69923 16.5044 8.407 16.503C8.20092 16.5052 7.99517 16.486 7.793 16.446C8.00239 17.0983 8.41078 17.6687 8.96084 18.077C9.5109 18.4854 10.175 18.7113 10.86 18.723C9.6961 19.636 8.25925 20.1315 6.78 20.13C6.5193 20.132 6.25875 20.1169 6 20.085C7.50142 21.0425 9.24527 21.5508 11.026 21.55Z" fill="#889397"/>
</svg>
