<svg width="215" height="32" viewBox="0 0 215 32" fill="none" xmlns="http://www.w3.org/2000/svg">
<g clip-path="url(#clip0_1_1656)">
<g clip-path="url(#clip1_1_1656)">
<path d="M12.1235 25.1418C13.5969 25.1418 14.7914 23.9474 14.7914 22.474C14.7914 21.0005 13.5969 19.806 12.1235 19.806C10.65 19.806 9.45557 21.0005 9.45557 22.474C9.45557 23.9474 10.65 25.1418 12.1235 25.1418Z" stroke="#0AAD0A" stroke-width="1.28276" stroke-miterlimit="10" stroke-linecap="round"/>
<path d="M10.9761 9.46947H27.1146" stroke="#0AAD0A" stroke-width="1.28276" stroke-miterlimit="10" stroke-linecap="round"/>
<path d="M12.3889 12.6971H26.4092" stroke="#0AAD0A" stroke-width="1.28276" stroke-miterlimit="10" stroke-linecap="round"/>
<path d="M11.6611 19.805H22.1138C23.2586 19.805 24.2784 19.0777 24.6505 17.9944L28.9585 5.46092C29.3307 4.37763 30.3495 3.65038 31.4953 3.65038H34.6292" stroke="#0AAD0A" stroke-width="1.28276" stroke-miterlimit="10" stroke-linecap="round"/>
<path d="M12.1236 22.8591C12.3364 22.8591 12.5089 22.6866 12.5089 22.4739C12.5089 22.261 12.3364 22.0886 12.1236 22.0886C11.9108 22.0886 11.7383 22.261 11.7383 22.4739C11.7383 22.6866 11.9108 22.8591 12.1236 22.8591Z" stroke="#0AAD0A" stroke-width="1.06897" stroke-miterlimit="10" stroke-linecap="round"/>
<path d="M21.8222 25.1418C23.2956 25.1418 24.49 23.9474 24.49 22.474C24.49 21.0005 23.2956 19.806 21.8222 19.806C20.3487 19.806 19.1543 21.0005 19.1543 22.474C19.1543 23.9474 20.3487 25.1418 21.8222 25.1418Z" stroke="#0AAD0A" stroke-width="1.28276" stroke-miterlimit="10" stroke-linecap="round"/>
<path d="M21.8223 22.8591C22.035 22.8591 22.2076 22.6866 22.2076 22.4738C22.2076 22.261 22.035 22.0885 21.8223 22.0885C21.6095 22.0885 21.437 22.261 21.437 22.4738C21.437 22.6866 21.6095 22.8591 21.8223 22.8591Z" stroke="#0AAD0A" stroke-width="1.06897" stroke-miterlimit="10" stroke-linecap="round"/>
<path d="M25.1874 16.432H11.1479C10.6779 16.432 10.2653 16.1061 10.1362 15.6319L7.75481 6.9088C7.63578 6.47382 7.94745 6.0399 8.37916 6.0399H26.3776" stroke="#0AAD0A" stroke-width="1.28276" stroke-miterlimit="10" stroke-linecap="round"/>
<path d="M5 26.807C5 26.807 15.26 23.3352 29.1058 26.807" stroke="#0AAD0A" stroke-width="1.28276" stroke-miterlimit="10" stroke-linecap="round"/>
<path d="M40.5269 25.28V6.62166H52.8807V9.87411H44.4717V14.32H52.0608V17.5725H44.4717V25.28H40.5269Z" fill="#21313C"/>
<path d="M54.4661 25.28V11.2862H58.2287V13.7278H58.3745C58.6296 12.8593 59.0578 12.2033 59.6591 11.76C60.2604 11.3105 60.9528 11.0858 61.7363 11.0858C61.9306 11.0858 62.1402 11.0979 62.3649 11.1222C62.5896 11.1465 62.787 11.1799 62.9571 11.2224V14.6662C62.7749 14.6116 62.5228 14.563 62.2009 14.5204C61.879 14.4779 61.5844 14.4567 61.3172 14.4567C60.7463 14.4567 60.2361 14.5812 59.7866 14.8302C59.3433 15.0732 58.991 15.4133 58.7298 15.8506C58.4747 16.2879 58.3472 16.792 58.3472 17.3629V25.28H54.4661Z" fill="#21313C"/>
<path d="M69.92 25.5533C68.4805 25.5533 67.2415 25.2617 66.2029 24.6787C65.1704 24.0895 64.3747 23.2574 63.8159 22.1824C63.2572 21.1013 62.9778 19.8228 62.9778 18.3469C62.9778 16.9074 63.2572 15.6441 63.8159 14.5569C64.3747 13.4697 65.1613 12.6224 66.1756 12.0151C67.1959 11.4077 68.3924 11.104 69.7651 11.104C70.6883 11.104 71.5477 11.2528 72.3434 11.5504C73.1451 11.842 73.8436 12.2823 74.4388 12.8714C75.0401 13.4606 75.5078 14.2016 75.8418 15.0944C76.1759 15.9812 76.3429 17.0198 76.3429 18.2102V19.2761H64.5266V16.871H72.6896C72.6896 16.3122 72.5681 15.8172 72.3251 15.3859C72.0822 14.9547 71.7451 14.6176 71.3139 14.3747C70.8887 14.1257 70.3937 14.0011 69.8289 14.0011C69.2397 14.0011 68.7174 14.1378 68.2619 14.4111C67.8124 14.6784 67.4601 15.0397 67.205 15.4953C66.95 15.9447 66.8194 16.4458 66.8133 16.9985V19.2852C66.8133 19.9776 66.9408 20.5759 67.1959 21.08C67.4571 21.5841 67.8246 21.9728 68.2983 22.2462C68.7721 22.5195 69.3339 22.6561 69.9837 22.6561C70.415 22.6561 70.8098 22.5954 71.1681 22.4739C71.5265 22.3524 71.8332 22.1702 72.0883 21.9273C72.3434 21.6843 72.5377 21.3867 72.6713 21.0345L76.2609 21.2713C76.0787 22.1338 75.7051 22.8869 75.1403 23.5307C74.5815 24.1685 73.8588 24.6665 72.972 25.0249C72.0913 25.3771 71.074 25.5533 69.92 25.5533Z" fill="#21313C"/>
<path d="M89.7493 15.2766L86.1962 15.4953C86.1354 15.1916 86.0049 14.9183 85.8044 14.6753C85.604 14.4263 85.3398 14.2289 85.0118 14.0831C84.6899 13.9313 84.3042 13.8554 83.8548 13.8554C83.2535 13.8554 82.7463 13.9829 82.3333 14.238C81.9203 14.487 81.7138 14.8211 81.7138 15.2402C81.7138 15.5742 81.8474 15.8567 82.1147 16.0875C82.3819 16.3183 82.8405 16.5035 83.4904 16.6432L86.0231 17.1534C87.3836 17.4328 88.3979 17.8822 89.066 18.5017C89.7341 19.1213 90.0681 19.9351 90.0681 20.9434C90.0681 21.8605 89.7979 22.6652 89.2573 23.3576C88.7228 24.05 87.9879 24.5906 87.0526 24.9793C86.1233 25.3619 85.0513 25.5533 83.8366 25.5533C81.9841 25.5533 80.5082 25.1676 79.4088 24.3962C78.3156 23.6188 77.6748 22.562 77.4865 21.2258L81.3038 21.0253C81.4192 21.5902 81.6986 22.0214 82.142 22.319C82.5854 22.6106 83.1532 22.7563 83.8456 22.7563C84.5258 22.7563 85.0724 22.6258 85.4855 22.3646C85.9045 22.0973 86.1172 21.7542 86.1233 21.3351C86.1172 20.9828 85.9684 20.6943 85.6769 20.4696C85.3853 20.2388 84.9359 20.0627 84.3285 19.9412L81.9051 19.4583C80.5386 19.185 79.5212 18.7113 78.8531 18.0371C78.1911 17.3629 77.8601 16.5035 77.8601 15.4588C77.8601 14.5599 78.103 13.7855 78.5889 13.1357C79.0809 12.4858 79.7702 11.9847 80.657 11.6324C81.5498 11.2801 82.5945 11.104 83.791 11.104C85.5584 11.104 86.9493 11.4775 87.9636 12.2246C88.984 12.9717 89.5792 13.989 89.7493 15.2766Z" fill="#21313C"/>
<path d="M95.6233 17.1898V25.28H91.7423V6.62166H95.514V13.7552H95.678C95.9938 12.9291 96.504 12.2823 97.2086 11.8146C97.9131 11.3409 98.7968 11.104 99.8597 11.104C100.832 11.104 101.679 11.3166 102.402 11.7417C103.13 12.1608 103.695 12.7652 104.096 13.5547C104.503 14.3382 104.703 15.2766 104.697 16.3699V25.28H100.816V17.0623C100.822 16.1998 100.604 15.5287 100.16 15.0489C99.7231 14.569 99.1096 14.3291 98.3201 14.3291C97.7916 14.3291 97.324 14.4415 96.917 14.6662C96.5162 14.8909 96.2003 15.2189 95.9695 15.6501C95.7448 16.0753 95.6294 16.5885 95.6233 17.1898Z" fill="#21313C"/>
<path d="M123.518 13.1539H119.527C119.454 12.6376 119.306 12.179 119.081 11.7782C118.856 11.3713 118.568 11.0251 118.215 10.7396C117.863 10.4541 117.456 10.2355 116.994 10.0836C116.539 9.9318 116.044 9.85588 115.509 9.85588C114.544 9.85588 113.703 10.0958 112.986 10.5756C112.269 11.0493 111.713 11.7417 111.319 12.6528C110.924 13.5578 110.726 14.6571 110.726 15.9508C110.726 17.2809 110.924 18.3985 111.319 19.3035C111.72 20.2084 112.278 20.8917 112.995 21.3533C113.712 21.8149 114.541 22.0457 115.482 22.0457C116.011 22.0457 116.499 21.9759 116.949 21.8362C117.404 21.6965 117.808 21.493 118.161 21.2258C118.513 20.9525 118.804 20.6214 119.035 20.2327C119.272 19.844 119.436 19.4006 119.527 18.9026L123.518 18.9208C123.414 19.7772 123.156 20.6032 122.743 21.3989C122.336 22.1885 121.787 22.896 121.094 23.5216C120.408 24.1411 119.588 24.6331 118.634 24.9975C117.687 25.3559 116.615 25.535 115.418 25.535C113.754 25.535 112.266 25.1585 110.954 24.4053C109.648 23.6522 108.616 22.562 107.857 21.1347C107.104 19.7074 106.727 17.9794 106.727 15.9508C106.727 13.9161 107.11 12.1851 107.875 10.7578C108.64 9.33051 109.679 8.24332 110.991 7.49626C112.303 6.74313 113.778 6.36656 115.418 6.36656C116.499 6.36656 117.502 6.5184 118.425 6.82208C119.354 7.12577 120.177 7.56914 120.894 8.15222C121.61 8.72921 122.194 9.4368 122.643 10.275C123.099 11.1131 123.39 12.0728 123.518 13.1539Z" fill="#21313C"/>
<path d="M129.494 25.5442C128.601 25.5442 127.806 25.3893 127.107 25.0795C126.409 24.7637 125.856 24.2991 125.449 23.6856C125.048 23.0661 124.848 22.2947 124.848 21.3715C124.848 20.5941 124.991 19.9412 125.276 19.4128C125.562 18.8844 125.95 18.4592 126.442 18.1373C126.934 17.8154 127.493 17.5725 128.119 17.4085C128.75 17.2445 129.412 17.1291 130.105 17.0623C130.919 16.9772 131.575 16.8983 132.073 16.8254C132.571 16.7464 132.932 16.631 133.157 16.4792C133.381 16.3274 133.494 16.1026 133.494 15.805V15.7504C133.494 15.1734 133.312 14.727 132.947 14.4111C132.589 14.0953 132.079 13.9374 131.417 13.9374C130.718 13.9374 130.162 14.0923 129.749 14.402C129.336 14.7057 129.063 15.0883 128.929 15.5499L125.34 15.2584C125.522 14.4081 125.88 13.6732 126.415 13.0537C126.949 12.4281 127.639 11.9482 128.483 11.6142C129.333 11.2741 130.317 11.104 131.435 11.104C132.212 11.104 132.956 11.1951 133.667 11.3773C134.384 11.5595 135.018 11.842 135.571 12.2246C136.13 12.6072 136.57 13.0992 136.892 13.7005C137.214 14.2957 137.375 15.0094 137.375 15.8415V25.28H133.694V23.3394H133.585C133.36 23.7767 133.06 24.1624 132.683 24.4964C132.306 24.8244 131.854 25.0826 131.325 25.2708C130.797 25.4531 130.187 25.5442 129.494 25.5442ZM130.606 22.8657C131.177 22.8657 131.681 22.7533 132.118 22.5286C132.555 22.2978 132.899 21.988 133.148 21.5993C133.397 21.2106 133.521 20.7703 133.521 20.2783V18.7933C133.4 18.8722 133.233 18.9451 133.02 19.0119C132.814 19.0727 132.58 19.1304 132.319 19.185C132.057 19.2336 131.796 19.2792 131.535 19.3217C131.274 19.3581 131.037 19.3915 130.824 19.4219C130.369 19.4887 129.971 19.595 129.631 19.7408C129.291 19.8865 129.027 20.0839 128.838 20.3329C128.65 20.5759 128.556 20.8796 128.556 21.244C128.556 21.7724 128.747 22.1763 129.13 22.4557C129.519 22.729 130.011 22.8657 130.606 22.8657Z" fill="#21313C"/>
<path d="M139.616 25.28V11.2862H143.379V13.7278H143.525C143.78 12.8593 144.208 12.2033 144.809 11.76C145.411 11.3105 146.103 11.0858 146.886 11.0858C147.081 11.0858 147.29 11.0979 147.515 11.1222C147.74 11.1465 147.937 11.1799 148.107 11.2224V14.6662C147.925 14.6116 147.673 14.563 147.351 14.5204C147.029 14.4779 146.735 14.4567 146.467 14.4567C145.896 14.4567 145.386 14.5812 144.937 14.8302C144.493 15.0732 144.141 15.4133 143.88 15.8506C143.625 16.2879 143.497 16.792 143.497 17.3629V25.28H139.616Z" fill="#21313C"/>
<path d="M157.489 11.2862V14.2016H149.062V11.2862H157.489ZM150.975 7.93356H154.856V20.9798C154.856 21.3381 154.911 21.6175 155.02 21.818C155.129 22.0123 155.281 22.149 155.476 22.2279C155.676 22.3069 155.907 22.3464 156.168 22.3464C156.35 22.3464 156.532 22.3312 156.715 22.3008C156.897 22.2644 157.036 22.237 157.134 22.2188L157.744 25.1069C157.55 25.1676 157.276 25.2374 156.924 25.3164C156.572 25.4014 156.144 25.453 155.64 25.4713C154.704 25.5077 153.884 25.3832 153.18 25.0977C152.481 24.8123 151.938 24.3689 151.549 23.7676C151.16 23.1663 150.969 22.4071 150.975 21.49V7.93356Z" fill="#21313C"/>
</g>
</g>
<defs>
<clipPath id="clip0_1_1656">
<rect width="160" height="31" fill="white" transform="translate(4 0.280014)"/>
</clipPath>
<clipPath id="clip1_1_1656">
<rect width="160" height="31" fill="white" transform="translate(4 0.280014)"/>
</clipPath>
</defs>
</svg>
