<svg width="41" height="29" viewBox="0 0 41 29" fill="none" xmlns="http://www.w3.org/2000/svg">
<g clip-path="url(#clip0_1_2287)">
<g clip-path="url(#clip1_1_2287)">
<g clip-path="url(#clip2_1_2287)">
<mask id="mask0_1_2287" style="mask-type:luminance" maskUnits="userSpaceOnUse" x="0" y="0" width="40" height="29">
<path d="M39.4927 0.845215H0.170044V28.8452H39.4927V0.845215Z" fill="white"/>
</mask>
<g mask="url(#mask0_1_2287)">
<path d="M30.568 13.1514H28.4459C28.321 13.1514 28.1962 13.2758 28.1338 13.4002L27.2599 18.8758C27.2599 19.0002 27.3224 19.0624 27.4472 19.0624H28.5707C28.6955 19.0624 28.7579 19.0002 28.7579 18.8758L29.0076 17.3202C29.0076 17.1958 29.1325 17.0713 29.3197 17.0713H30.0063C31.4419 17.0713 32.2533 16.3869 32.4406 15.018C32.5654 14.458 32.4406 13.9602 32.1909 13.6491C31.8164 13.338 31.2546 13.1514 30.568 13.1514ZM30.8177 15.2047C30.6929 15.9513 30.1311 15.9513 29.5694 15.9513H29.1949L29.4445 14.5202C29.4445 14.458 29.507 14.3958 29.6318 14.3958H29.7566C30.1311 14.3958 30.5056 14.3958 30.6929 14.6447C30.8177 14.7069 30.8177 14.8936 30.8177 15.2047Z" fill="#139AD6"/>
<path d="M15.277 13.1514H13.1549C13.03 13.1514 12.9052 13.2758 12.8428 13.4002L11.9689 18.8758C11.9689 19.0002 12.0313 19.0624 12.1562 19.0624H13.1549C13.2797 19.0624 13.4045 18.938 13.4669 18.8135L13.7166 17.3202C13.7166 17.1958 13.8414 17.0713 14.0287 17.0713H14.7153C16.1509 17.0713 16.9623 16.3869 17.1495 15.018C17.2744 14.458 17.1495 13.9602 16.8999 13.6491C16.5254 13.338 16.026 13.1514 15.277 13.1514ZM15.5267 15.2047C15.4019 15.9513 14.8401 15.9513 14.2784 15.9513H13.9663L14.2159 14.5202C14.2159 14.458 14.2784 14.3958 14.4032 14.3958H14.528C14.9025 14.3958 15.277 14.3958 15.4643 14.6447C15.5267 14.7069 15.5891 14.8936 15.5267 15.2047Z" fill="#263B80"/>
<path d="M21.7046 15.142H20.706C20.6436 15.142 20.5187 15.2042 20.5187 15.2665L20.4563 15.5776L20.3939 15.4531C20.1442 15.142 19.7073 15.0176 19.208 15.0176C18.0845 15.0176 17.0858 15.8887 16.8986 17.0709C16.7737 17.6931 16.961 18.2531 17.2731 18.6264C17.5851 18.9998 18.0221 19.1242 18.5838 19.1242C19.5201 19.1242 20.0194 18.5642 20.0194 18.5642L19.957 18.8753C19.957 18.9998 20.0194 19.062 20.1442 19.062H21.0805C21.2053 19.062 21.3301 18.9375 21.3925 18.8131L21.9543 15.3287C21.8919 15.2665 21.767 15.142 21.7046 15.142ZM20.2691 17.1331C20.1442 17.6931 19.7073 18.1287 19.0831 18.1287C18.7711 18.1287 18.5214 18.0042 18.3966 17.8798C18.2717 17.6931 18.2093 17.4442 18.2093 17.1331C18.2717 16.5731 18.7711 16.1376 19.3328 16.1376C19.6449 16.1376 19.8321 16.262 20.0194 16.3864C20.2066 16.5731 20.2691 16.8842 20.2691 17.1331Z" fill="#263B80"/>
<path d="M36.9332 15.1415H35.9345C35.8721 15.1415 35.7473 15.2037 35.7473 15.266L35.6849 15.5771L35.6224 15.4526C35.3728 15.1415 34.9358 15.0171 34.4365 15.0171C33.313 15.0171 32.3143 15.8882 32.1271 17.0704C32.0022 17.6926 32.1895 18.2526 32.5016 18.6259C32.8137 18.9993 33.2506 19.1237 33.8123 19.1237C34.7486 19.1237 35.2479 18.5637 35.2479 18.5637L35.1855 18.8748C35.1855 18.9993 35.2479 19.0615 35.3728 19.0615H36.309C36.4339 19.0615 36.5587 18.9371 36.6211 18.8126L37.1829 15.3282C37.1204 15.266 37.058 15.1415 36.9332 15.1415ZM35.4976 17.1326C35.3728 17.6926 34.9358 18.1282 34.3117 18.1282C33.9996 18.1282 33.7499 18.0037 33.6251 17.8793C33.5002 17.6926 33.4378 17.4437 33.4378 17.1326C33.5002 16.5726 33.9996 16.1371 34.5613 16.1371C34.8734 16.1371 35.0607 16.2615 35.2479 16.386C35.4976 16.5726 35.56 16.8837 35.4976 17.1326Z" fill="#139AD6"/>
<path d="M27.1325 15.1392H26.0714C25.9466 15.1392 25.8841 15.2015 25.8217 15.2637L24.4485 17.3793L23.8244 15.3881C23.7619 15.2637 23.6995 15.2015 23.5123 15.2015H22.5136C22.3888 15.2015 22.3263 15.3259 22.3263 15.4504L23.4499 18.7482L22.3888 20.2415C22.3263 20.3659 22.3888 20.5526 22.5136 20.5526H23.5123C23.6371 20.5526 23.6995 20.4904 23.7619 20.4282L27.1949 15.5126C27.3822 15.3259 27.2573 15.1392 27.1325 15.1392Z" fill="#263B80"/>
<path d="M38.1221 13.3368L37.2482 18.9368C37.2482 19.0613 37.3106 19.1235 37.4355 19.1235H38.3093C38.4341 19.1235 38.559 18.999 38.6214 18.8746L39.4952 13.399C39.4952 13.2746 39.4328 13.2124 39.308 13.2124H38.3093C38.2469 13.1502 38.1845 13.2124 38.1221 13.3368Z" fill="#139AD6"/>
<path d="M7.348 11.2838C6.91108 10.786 6.09966 10.5371 4.97615 10.5371H1.8553C1.66805 10.5371 1.4808 10.7238 1.41838 10.9104L0.170044 19.0615C0.170044 19.2482 0.294878 19.3726 0.419712 19.3726H2.35464L2.85397 16.3238V16.4482C2.91639 16.2615 3.10364 16.0749 3.29089 16.0749H4.22715C6.03724 16.0749 7.41041 15.3282 7.84733 13.2749C7.84733 13.2126 7.84733 13.1504 7.84733 13.0882C7.78492 13.0882 7.78492 13.0882 7.84733 13.0882C7.90975 12.2793 7.78492 11.7815 7.348 11.2838Z" fill="#263B80"/>
<path d="M7.78367 13.0869C7.78367 13.1491 7.78367 13.2113 7.78367 13.2736C7.34676 15.3891 5.97358 16.0736 4.16349 16.0736H3.22723C3.03998 16.0736 2.85273 16.2602 2.79031 16.4469L2.16614 20.2425C2.16614 20.3669 2.22856 20.4913 2.41581 20.4913H4.03865C4.2259 20.4913 4.41316 20.3669 4.41316 20.1802V20.118L4.72524 18.1891V18.0647C4.72524 17.878 4.91249 17.7536 5.09974 17.7536H5.34941C6.90984 17.7536 8.15818 17.1313 8.47026 15.2647C8.5951 14.518 8.53268 13.8336 8.15818 13.398C8.09576 13.2736 7.97093 13.1491 7.78367 13.0869Z" fill="#139AD6"/>
<path d="M7.34767 12.902C7.28525 12.902 7.22283 12.8398 7.16042 12.8398C7.098 12.8398 7.03558 12.8398 6.97317 12.7775C6.7235 12.7153 6.47383 12.7153 6.16174 12.7153H3.72748C3.66506 12.7153 3.60265 12.7153 3.54023 12.7775C3.4154 12.8398 3.35298 12.9642 3.35298 13.0886L2.85364 16.3242V16.4487C2.91606 16.262 3.10331 16.0753 3.29056 16.0753H4.22682C6.03691 16.0753 7.41008 15.3287 7.847 13.2753C7.847 13.2131 7.847 13.1509 7.90942 13.0886C7.78459 13.0264 7.72217 12.9642 7.59734 12.9642C7.41008 12.902 7.41008 12.902 7.34767 12.902Z" fill="#232C65"/>
</g>
</g>
</g>
</g>
<defs>
<clipPath id="clip0_1_2287">
<rect width="40" height="28" fill="white" transform="translate(0.170044 0.845215)"/>
</clipPath>
<clipPath id="clip1_1_2287">
<rect width="40" height="28" fill="white" transform="translate(0.170044 0.845215)"/>
</clipPath>
<clipPath id="clip2_1_2287">
<rect width="40" height="28" fill="white" transform="translate(0.170044 0.845215)"/>
</clipPath>
</defs>
</svg>
