<svg width="30" height="29" viewBox="0 0 30 29" fill="none" xmlns="http://www.w3.org/2000/svg">
<g clip-path="url(#clip0_1_2304)">
<g clip-path="url(#clip1_1_2304)">
<g clip-path="url(#clip2_1_2304)">
<mask id="mask0_1_2304" style="mask-type:luminance" maskUnits="userSpaceOnUse" x="0" y="0" width="29" height="29">
<path d="M28.2577 0.845215H0.170044V28.8452H28.2577V0.845215Z" fill="white"/>
</mask>
<g mask="url(#mask0_1_2304)">
<path d="M10.4669 18.8672L11.8935 10.8672H14.1227L12.7406 18.8672H10.4669Z" fill="#3C58BF"/>
<path d="M10.4669 18.8672L12.2948 10.8672H14.1227L12.7406 18.8672H10.4669Z" fill="#293688"/>
<path d="M20.8117 10.9566C20.3659 10.7789 19.6525 10.6011 18.7609 10.6011C16.5317 10.6011 14.9267 11.7122 14.9267 13.3122C14.9267 14.5122 16.0413 15.1344 16.9329 15.5344C17.8246 15.9344 18.0921 16.2011 18.0921 16.5566C18.0921 17.0899 17.3788 17.3566 16.7546 17.3566C15.8629 17.3566 15.3725 17.2233 14.6146 16.9122L14.3025 16.7788L13.9904 18.6011C14.5254 18.8233 15.5063 19.0455 16.5317 19.0455C18.8946 19.0455 20.455 17.9344 20.455 16.2455C20.455 15.3122 19.8754 14.6011 18.5379 14.0233C17.7354 13.6233 17.245 13.4011 17.245 13.0011C17.245 12.6455 17.6463 12.2899 18.5379 12.2899C19.2959 12.2899 19.8309 12.4233 20.2321 12.6011L20.455 12.6899L20.8117 10.9566Z" fill="#3C58BF"/>
<path d="M20.8117 10.9566C20.3659 10.7789 19.6525 10.6011 18.7609 10.6011C16.5317 10.6011 15.3279 11.7122 15.3279 13.3122C15.3279 14.5122 16.0413 15.1344 16.9329 15.5344C17.8246 15.9344 18.0921 16.2011 18.0921 16.5566C18.0921 17.0899 17.3788 17.3566 16.7546 17.3566C15.8629 17.3566 15.3725 17.2233 14.6146 16.9122L14.3025 16.7788L13.9904 18.6011C14.5254 18.8233 15.5063 19.0455 16.5317 19.0455C18.8946 19.0455 20.455 17.9344 20.455 16.2455C20.455 15.3122 19.8754 14.6011 18.5379 14.0233C17.7354 13.6233 17.245 13.4011 17.245 13.0011C17.245 12.6455 17.6463 12.2899 18.5379 12.2899C19.2959 12.2899 19.8309 12.4233 20.2321 12.6011L20.455 12.6899L20.8117 10.9566Z" fill="#293688"/>
<path d="M24.6456 10.8672C24.1106 10.8672 23.7093 10.9116 23.4864 11.445L20.1427 18.8672H22.5502L22.996 17.5338H25.8493L26.1168 18.8672H28.2568L26.3843 10.8672H24.6456ZM23.6202 16.2005C23.7539 15.8005 24.5118 13.845 24.5118 13.845C24.5118 13.845 24.6902 13.3561 24.8239 13.045L24.9577 13.8005C24.9577 13.8005 25.4035 15.8005 25.4927 16.245H23.6202V16.2005Z" fill="#3C58BF"/>
<path d="M25.1806 10.8672C24.6456 10.8672 24.2443 10.9116 24.0214 11.445L20.1427 18.8672H22.5502L22.996 17.5338H25.8493L26.1168 18.8672H28.2568L26.3843 10.8672H25.1806ZM23.6202 16.2005C23.7985 15.7561 24.5118 13.845 24.5118 13.845C24.5118 13.845 24.6902 13.3561 24.8239 13.045L24.9577 13.8005C24.9577 13.8005 25.4035 15.8005 25.4927 16.245H23.6202V16.2005Z" fill="#293688"/>
<path d="M6.36928 16.4682L6.14636 15.3126C5.74511 13.9793 4.45218 12.5126 3.02551 11.8015L5.03177 18.9126H7.43928L11.0505 10.9126H8.64304L6.36928 16.4682Z" fill="#3C58BF"/>
<path d="M6.36928 16.4682L6.14636 15.3126C5.74511 13.9793 4.45218 12.5126 3.02551 11.8015L5.03177 18.9126H7.43928L11.0505 10.9126H9.08887L6.36928 16.4682Z" fill="#293688"/>
<path d="M0.170044 10.8672L0.571296 10.9561C3.42464 11.6227 5.38632 13.3116 6.14424 15.3116L5.34174 11.5338C5.20798 11.0005 4.80673 10.8672 4.31631 10.8672H0.170044Z" fill="#FFBC00"/>
<path d="M0.170044 10.8672C3.02339 11.5338 5.38632 13.2672 6.14424 15.2672L5.38632 12.1116C5.25257 11.5783 4.80673 11.2672 4.31631 11.2672L0.170044 10.8672Z" fill="#F7981D"/>
<path d="M0.170044 10.8672C3.02339 11.5338 5.38632 13.2672 6.14424 15.2672L5.60924 13.5338C5.47549 13.0005 5.29715 12.4672 4.67298 12.245L0.170044 10.8672Z" fill="#ED7C00"/>
</g>
</g>
</g>
</g>
<defs>
<clipPath id="clip0_1_2304">
<rect width="29" height="28" fill="white" transform="translate(0.170044 0.845215)"/>
</clipPath>
<clipPath id="clip1_1_2304">
<rect width="29" height="28" fill="white" transform="translate(0.170044 0.845215)"/>
</clipPath>
<clipPath id="clip2_1_2304">
<rect width="29" height="28" fill="white" transform="translate(0.170044 0.845215)"/>
</clipPath>
</defs>
</svg>
