<svg width="121" height="121" viewBox="0 0 121 121" fill="none" xmlns="http://www.w3.org/2000/svg">
<g clip-path="url(#clip0_1_1929)">
<path d="M58.8229 21.7277C48.0769 24.8877 58.53 68.0223 71.4203 64.2291C84.3168 60.4359 69.569 18.5677 58.8229 21.7277Z" fill="#EABC49"/>
<path d="M66.0641 28.2462C64.4622 27.2901 62.48 26.9735 60.5415 27.5385C58.6092 28.1096 57.1133 29.4444 56.2905 31.1206L66.0641 28.2462Z" fill="#C94536"/>
<path d="M73.9588 54.8546C72.3568 53.8985 70.3747 53.5819 68.4362 54.1469C66.5039 54.718 65.0079 56.0528 64.1851 57.7228L73.9588 54.8546Z" fill="#C94536"/>
<path d="M68.9188 34.6159C67.0239 33.486 64.6802 33.1073 62.3927 33.784C60.1051 34.4607 58.3473 36.0376 57.3687 38.0118L68.9188 34.6159Z" fill="#C94536"/>
<path d="M72.9891 48.3484C71.0942 47.2185 68.7506 46.8398 66.463 47.5165C64.1754 48.1932 62.4176 49.77 61.439 51.7443L72.9891 48.3484Z" fill="#C94536"/>
<path d="M71.4529 41.445C69.4022 40.222 66.8715 39.8184 64.4032 40.5448C61.9348 41.2712 60.0275 42.9846 58.9741 45.1141L71.4529 41.445Z" fill="#C94536"/>
<path d="M83.2465 32.0395H73.9341C72.7747 32.0395 71.8335 31.1021 71.8335 29.9473C71.8335 28.7926 72.7747 27.8552 73.9341 27.8552H83.2465C84.4059 27.8552 85.3471 28.7926 85.3471 29.9473C85.3471 31.1021 84.4059 32.0395 83.2465 32.0395Z" fill="#D7513E"/>
<path d="M87.2913 45.8589C87.2913 44.5241 86.2068 43.4439 84.8666 43.4439H84.6298C86.5995 43.4439 87.8835 41.3827 87.0108 39.6258L83.246 32.0332H78.5898H73.9336L70.1687 39.6258C69.2961 41.3827 70.5801 43.4439 72.5498 43.4439H72.3129C70.9728 43.4439 69.8882 44.5241 69.8882 45.8589C69.8882 47.1936 70.9728 48.2739 72.3129 48.2739C70.9728 48.2739 69.8882 49.3541 69.8882 50.6888C69.8882 52.0236 70.9728 53.1038 72.3129 53.1038C70.9728 53.1038 69.8882 54.1841 69.8882 55.5188C69.8882 56.8536 70.9728 57.9338 72.3129 57.9338C70.9728 57.9338 69.8882 59.0141 69.8882 60.3488C69.8882 61.6836 70.9728 62.7638 72.3129 62.7638H84.8729C86.213 62.7638 87.2976 61.6836 87.2976 60.3488C87.2976 59.0141 86.213 57.9338 84.8729 57.9338C86.213 57.9338 87.2976 56.8536 87.2976 55.5188C87.2976 54.1841 86.213 53.1038 84.8729 53.1038C86.213 53.1038 87.2976 52.0236 87.2976 50.6888C87.2976 49.3541 86.213 48.2739 84.8729 48.2739C86.2068 48.2739 87.2913 47.1936 87.2913 45.8589Z" fill="#FAE7DB"/>
<path d="M87.2913 45.8589C87.2913 44.5241 86.2068 43.4438 84.8666 43.4438H84.6298C86.5995 43.4438 87.8835 41.3827 87.0108 39.6257L85.758 37.1052C85.5211 37.1425 85.2905 37.1922 85.0661 37.2543C83.62 37.6578 82.3172 38.4525 80.9522 39.0919C79.5871 39.7252 78.0724 40.2156 76.5952 39.9363C75.2612 39.6879 74.1206 38.8559 72.8739 38.3282C72.3005 38.0861 71.646 37.931 71.0164 37.9186L70.1687 39.6321C69.2961 41.389 70.5801 43.4501 72.5498 43.4501H72.3129C70.9728 43.4501 69.8882 44.5302 69.8882 45.865C69.8882 47.1998 70.9728 48.28 72.3129 48.28C70.9728 48.28 69.8882 49.3603 69.8882 50.6951C69.8882 52.0299 70.9728 53.1101 72.3129 53.1101C70.9728 53.1101 69.8882 54.1902 69.8882 55.525C69.8882 56.8597 70.9728 57.94 72.3129 57.94C70.9728 57.94 69.8882 59.0203 69.8882 60.3551C69.8882 61.6898 70.9728 62.7701 72.3129 62.7701H84.8729C86.213 62.7701 87.2976 61.6898 87.2976 60.3551C87.2976 59.0203 86.213 57.94 84.8729 57.94C86.213 57.94 87.2976 56.8597 87.2976 55.525C87.2976 54.1902 86.213 53.1101 84.8729 53.1101C86.213 53.1101 87.2976 52.0299 87.2976 50.6951C87.2976 49.3603 86.213 48.28 84.8729 48.28C86.2068 48.2738 87.2913 47.1937 87.2913 45.8589Z" fill="#016BF8"/>
<path d="M45.065 32.9333H33.2593V52.3774H45.065V32.9333Z" fill="#0AAD0A"/>
<path d="M47.8579 28.4138H36.0522V26.483C36.0522 25.527 36.8313 24.7509 37.7913 24.7509H46.1251C47.085 24.7509 47.8641 25.527 47.8641 26.483V28.4138H47.8579Z" fill="#0AAD0A"/>
<path d="M45.065 32.9334H33.2593L36.0518 28.4138H47.8575L45.065 32.9334Z" fill="#FAE7DB"/>
<path d="M50.649 32.9334V52.3775H45.064V32.9334L47.8565 28.4138L50.649 32.9334Z" fill="#EABC49"/>
<path d="M42.4335 37.1675H35.8886C35.6518 37.1675 35.4585 36.975 35.4585 36.7391C35.4585 36.5032 35.6518 36.3107 35.8886 36.3107H42.4335C42.6704 36.3107 42.8636 36.5032 42.8636 36.7391C42.8698 36.975 42.6766 37.1675 42.4335 37.1675Z" fill="#254C40"/>
<path d="M42.4335 40.2528H35.8886C35.6518 40.2528 35.4585 40.0604 35.4585 39.8244C35.4585 39.5885 35.6518 39.3961 35.8886 39.3961H42.4335C42.6704 39.3961 42.8636 39.5885 42.8636 39.8244C42.8698 40.0604 42.6766 40.2528 42.4335 40.2528Z" fill="#254C40"/>
<path d="M42.4335 43.3384H35.8886C35.6518 43.3384 35.4585 43.1459 35.4585 42.91C35.4585 42.6741 35.6518 42.4817 35.8886 42.4817H42.4335C42.6704 42.4817 42.8636 42.6741 42.8636 42.91C42.8698 43.1459 42.6766 43.3384 42.4335 43.3384Z" fill="#254C40"/>
<path d="M60.1734 35.9568H47.9376C47.3205 35.9568 46.8218 35.4601 46.8218 34.8455V34.802C46.8218 34.1874 47.3205 33.6908 47.9376 33.6908H60.1734C60.7904 33.6908 61.2891 34.1874 61.2891 34.802V34.8455C61.2891 35.4539 60.7904 35.9568 60.1734 35.9568Z" fill="#254C40"/>
<path d="M60.5489 36.9998H59.4145V35.9506H48.6996V36.9998H47.5651C46.6738 36.9998 45.9507 37.72 45.9507 38.6077V53.9234C45.9507 54.8112 46.6738 55.5313 47.5651 55.5313H60.5489C61.4402 55.5313 62.1633 54.8112 62.1633 53.9234V38.6077C62.1633 37.72 61.4402 36.9998 60.5489 36.9998Z" fill="#D7513E"/>
<path d="M60.5505 55.5251C61.4418 55.5251 62.1649 54.805 62.1649 53.9172V39.7252C61.8283 39.719 61.4917 39.7439 61.1676 39.8059C60.0581 40.0232 59.042 40.5571 57.9949 40.9731C56.9477 41.389 55.7883 41.6932 54.6913 41.4201C53.4322 41.1097 52.4037 40.0667 51.1072 39.9674C50.3592 39.9053 49.6299 40.1722 48.9318 40.4454C48.2337 40.7185 47.5231 41.0165 46.7751 41.0165C46.5008 41.0165 46.2203 40.9669 45.9585 40.8738V53.9172C45.9585 54.805 46.6816 55.5251 47.5729 55.5251H60.5505Z" fill="#2B5B4F"/>
<path d="M54.0584 49.8259C57.2978 49.8259 59.9238 48.2305 59.9238 46.2624C59.9238 44.2944 57.2978 42.6989 54.0584 42.6989C50.819 42.6989 48.1929 44.2944 48.1929 46.2624C48.1929 48.2305 50.819 49.8259 54.0584 49.8259Z" fill="#EABC49"/>
<path d="M85.1712 47.8953L81.0262 44.6049L76.8873 47.8953H76.8561L72.7173 44.6049L68.5722 47.8953H68.5473L64.4084 44.6049L60.2633 47.8953H60.2384L56.0996 44.6049L51.9545 47.8953H51.9296L47.7845 44.6049L43.6456 47.8953H43.6207L39.4756 44.6049L35.3929 47.8394L31.3101 44.6049V48.0815V49.8757V99.56H89.3101V49.8757V48.0815V44.6049L85.1712 47.8953Z" fill="#00684A"/>
<path d="M75.9026 65.75H44.7179C43.9263 65.75 43.2905 65.1105 43.2905 64.3283C43.2905 63.5398 43.9325 62.9066 44.7179 62.9066H75.9026C76.6942 62.9066 77.33 63.546 77.33 64.3283C77.33 65.1167 76.6942 65.75 75.9026 65.75Z" fill="#0AAD0A"/>
<path d="M75.9026 75.7079H44.7179C43.9263 75.7079 43.2905 75.0685 43.2905 74.2863C43.2905 73.504 43.9325 72.8646 44.7179 72.8646H75.9026C76.6942 72.8646 77.33 73.504 77.33 74.2863C77.33 75.0685 76.6942 75.7079 75.9026 75.7079Z" fill="#0AAD0A"/>
<path d="M75.9026 85.6597H44.7179C43.9263 85.6597 43.2905 85.0203 43.2905 84.238C43.2905 83.4558 43.9325 82.8164 44.7179 82.8164H75.9026C76.6942 82.8164 77.33 83.4558 77.33 84.238C77.33 85.0265 76.6942 85.6597 75.9026 85.6597Z" fill="#0AAD0A"/>
</g>
<defs>
<clipPath id="clip0_1_1929">
<rect width="120" height="120" fill="white" transform="translate(0.310059 0.559937)"/>
</clipPath>
</defs>
</svg>
