<svg width="32" height="32" viewBox="0 0 32 32" fill="none" xmlns="http://www.w3.org/2000/svg">
<path d="M18.3463 15.5967C17.9207 15.1708 17.4154 14.833 16.8591 14.6026C16.3029 14.3721 15.7067 14.2535 15.1047 14.2535C14.5026 14.2535 13.9064 14.3721 13.3502 14.6026C12.794 14.833 12.2886 15.1708 11.863 15.5967L10.9797 16.48L10.0963 15.5967C9.2366 14.7369 8.07053 14.2539 6.85467 14.2539C5.63881 14.2539 4.47275 14.7369 3.61301 15.5967C2.75326 16.4564 2.27026 17.6225 2.27026 18.8383C2.27026 20.0542 2.75326 21.2203 3.61301 22.08L4.49634 22.9633L10.9797 29.4467L17.463 22.9633L18.3463 22.08C18.7722 21.6544 19.11 21.149 19.3404 20.5928C19.5709 20.0366 19.6895 19.4404 19.6895 18.8383C19.6895 18.2363 19.5709 17.6401 19.3404 17.0839C19.11 16.5277 18.7722 16.0223 18.3463 15.5967Z" stroke="#5C6C75" stroke-opacity="0.75" stroke-width="1.66667" stroke-linecap="round" stroke-linejoin="round"/>
<rect x="10.6096" y="0.665009" width="20.73" height="18.35" rx="9.175" fill="#198754"/>
<path d="M17.9199 11.9977V10.7262L21.1079 5.70365H22.2041V7.46359H21.5554L19.5456 10.6442V10.7038H24.076V11.9977H17.9199ZM21.5852 13.34V11.6099L21.615 11.0469V5.70365H23.1289V13.34H21.5852Z" fill="white"/>
</svg>
