<svg width="15" height="15" viewBox="0 0 15 15" fill="none" xmlns="http://www.w3.org/2000/svg">
<path d="M12.5698 6.59334C12.5698 10.6767 7.31982 14.1767 7.31982 14.1767C7.31982 14.1767 2.06982 10.6767 2.06982 6.59334C2.06982 5.20095 2.62295 3.86559 3.60751 2.88103C4.59208 1.89646 5.92744 1.34334 7.31982 1.34334C8.71221 1.34334 10.0476 1.89646 11.0321 2.88103C12.0167 3.86559 12.5698 5.20095 12.5698 6.59334Z" stroke="#5C6C75" stroke-opacity="0.75" stroke-width="1.16667" stroke-linecap="round" stroke-linejoin="round"/>
<path d="M7.31982 8.34334C8.28632 8.34334 9.06982 7.55984 9.06982 6.59334C9.06982 5.62684 8.28632 4.84334 7.31982 4.84334C6.35333 4.84334 5.56982 5.62684 5.56982 6.59334C5.56982 7.55984 6.35333 8.34334 7.31982 8.34334Z" stroke="#5C6C75" stroke-opacity="0.75" stroke-width="1.16667" stroke-linecap="round" stroke-linejoin="round"/>
</svg>
